  0
SECTION
  2
HEADER
  9
$ACADVER
  1
AC1009
  9
$INSBASE
 10
0.0
 20
0.0
 30
0.0
  9
$EXTMIN
 10
-27.0192192151199109
 20
-231.2139302693960872
 30
0.0
  9
$EXTMAX
 10
182.9807807848800962
 20
12.0316519963523092
 30
0.0
  9
$LIMMIN
 10
0.0
 20
0.0
  9
$LIMMAX
 10
12.0
 20
9.0
  9
$ORTHOMODE
 70
     0
  9
$REGENMODE
 70
     1
  9
$FILLMODE
 70
     1
  9
$QTEXTMODE
 70
     0
  9
$MIRRTEXT
 70
     0
  9
$DRAGMODE
 70
     2
  9
$LTSCALE
 40
1.0
  9
$OSMODE
 70
    37
  9
$ATTMODE
 70
     1
  9
$TEXTSIZE
 40
1.8
  9
$TRACEWID
 40
0.05
  9
$TEXTSTYLE
  7
ANNOTATIVE
  9
$CLAYER
  8
0
  9
$CELTYPE
  6
BYLAYER
  9
$CECOLOR
 62
   256
  9
$DIMSCALE
 40
2.0
  9
$DIMASZ
 40
2.0
  9
$DIMEXO
 40
0.0625
  9
$DIMDLI
 40
0.38
  9
$DIMRND
 40
0.0
  9
$DIMDLE
 40
0.0
  9
$DIMEXE
 40
0.18
  9
$DIMTP
 40
0.0
  9
$DIMTM
 40
0.0
  9
$DIMTXT
 40
1.0
  9
$DIMCEN
 40
0.09
  9
$DIMTSZ
 40
0.0
  9
$DIMTOL
 70
     0
  9
$DIMLIM
 70
     0
  9
$DIMTIH
 70
     0
  9
$DIMTOH
 70
     0
  9
$DIMSE1
 70
     0
  9
$DIMSE2
 70
     0
  9
$DIMTAD
 70
     1
  9
$DIMZIN
 70
     0
  9
$DIMBLK
  1

  9
$DIMASO
 70
     1
  9
$DIMSHO
 70
     1
  9
$DIMPOST
  1

  9
$DIMAPOST
  1

  9
$DIMALT
 70
     0
  9
$DIMALTD
 70
     2
  9
$DIMALTF
 40
25.3999999999999986
  9
$DIMLFAC
 40
1.0
  9
$DIMTOFL
 70
     0
  9
$DIMTVP
 40
0.0
  9
$DIMTIX
 70
     0
  9
$DIMSOXD
 70
     0
  9
$DIMSAH
 70
     0
  9
$DIMBLK1
  1

  9
$DIMBLK2
  1

  9
$DIMSTYLE
  2
COTE
  9
$DIMCLRD
 70
     0
  9
$DIMCLRE
 70
     0
  9
$DIMCLRT
 70
     0
  9
$DIMTFAC
 40
1.0
  9
$DIMGAP
 40
0.09
  9
$LUNITS
 70
     2
  9
$LUPREC
 70
     4
  9
$SKETCHINC
 40
0.1
  9
$FILLETRAD
 40
0.12
  9
$AUNITS
 70
     0
  9
$AUPREC
 70
     0
  9
$MENU
  1
.
  9
$ELEVATION
 40
0.0
  9
$PELEVATION
 40
0.0
  9
$THICKNESS
 40
0.0
  9
$LIMCHECK
 70
     0
  9
$BLIPMODE
 70
     0
  9
$CHAMFERA
 40
2.0
  9
$CHAMFERB
 40
2.0
  9
$SKPOLY
 70
     0
  9
$TDCREATE
 40
2459724.334953703917563
  9
$TDUPDATE
 40
2459903.0030555562116206
  9
$TDINDWG
 40
0.0704050926
  9
$TDUSRTIMER
 40
0.0704050926
  9
$USRTIMER
 70
     1
  9
$ANGBASE
 50
0.0
  9
$ANGDIR
 70
     0
  9
$PDMODE
 70
     0
  9
$PDSIZE
 40
0.0
  9
$PLINEWID
 40
0.0
  9
$COORDS
 70
     1
  9
$SPLFRAME
 70
     0
  9
$SPLINETYPE
 70
     6
  9
$SPLINESEGS
 70
     8
  9
$ATTDIA
 70
     1
  9
$ATTREQ
 70
     1
  9
$HANDLING
 70
     1
  9
$HANDSEED
  5
9C6
  9
$SURFTAB1
 70
     6
  9
$SURFTAB2
 70
     6
  9
$SURFTYPE
 70
     6
  9
$SURFU
 70
     6
  9
$SURFV
 70
     6
  9
$UCSNAME
  2

  9
$UCSORG
 10
-27.0192192151199109
 20
-231.2139302693960872
 30
0.0
  9
$UCSXDIR
 10
1.0
 20
0.0
 30
0.0
  9
$UCSYDIR
 10
0.0
 20
1.0
 30
0.0
  9
$PUCSNAME
  2

  9
$PUCSORG
 10
0.0
 20
0.0
 30
0.0
  9
$PUCSXDIR
 10
1.0
 20
0.0
 30
0.0
  9
$PUCSYDIR
 10
0.0
 20
1.0
 30
0.0
  9
$USERI1
 70
     0
  9
$USERI2
 70
     0
  9
$USERI3
 70
     0
  9
$USERI4
 70
     0
  9
$USERI5
 70
     0
  9
$USERR1
 40
0.0
  9
$USERR2
 40
0.0
  9
$USERR3
 40
0.0
  9
$USERR4
 40
0.0
  9
$USERR5
 40
0.0
  9
$WORLDVIEW
 70
     1
  9
$SHADEDGE
 70
     3
  9
$SHADEDIF
 70
    70
  9
$TILEMODE
 70
     0
  9
$MAXACTVP
 70
    64
  9
$PLIMCHECK
 70
     0
  9
$PEXTMIN
 10
1.049999952316284
 20
0.7999999523162842
 30
0.0
  9
$PEXTMAX
 10
9.4499995708465594
 20
7.1999995708465576
 30
0.0
  9
$PLIMMIN
 10
-0.2500002402958907
 20
-0.2499999962453767
  9
$PLIMMAX
 10
10.7499995194082203
 20
8.2499997634587334
  9
$UNITMODE
 70
     0
  9
$VISRETAIN
 70
     1
  9
$PLINEGEN
 70
     0
  9
$PSLTSCALE
 70
     1
  0
ENDSEC
  0
SECTION
  2
TABLES
  0
TABLE
  2
VPORT
 70
     1
  0
VPORT
  2
*ACTIVE
 70
     0
 10
0.0
 20
0.0
 11
1.0
 21
1.0
 12
83.8592701326290353
 22
-151.4847951395088046
 13
0.0
 23
0.0
 14
0.5
 24
0.5
 15
0.5
 25
0.5
 16
0.0
 26
0.0
 36
1.0
 17
0.0
 27
0.0
 37
0.0
 40
103.2767307437152056
 41
2.670868347338935
 42
50.0
 43
0.0
 44
0.0
 50
0.0
 51
0.0
 71
     0
 72
  1000
 73
     1
 74
     3
 75
     0
 76
     0
 77
     0
 78
     0
  0
ENDTAB
  0
TABLE
  2
LTYPE
 70
     4
  0
LTYPE
  2
CONTINUOUS
 70
     0
  3
Solid line
 72
    65
 73
     0
 40
0.0
  0
LTYPE
  2
ACAD_ISO08W100
 70
     0
  3
ISO long-dash short-dash ____ __ ____ __ ____ _
 72
    65
 73
     4
 40
36.0
 49
24.0
 49
-3.0
 49
6.0
 49
-3.0
  0
LTYPE
  2
ACAD_ISO07W100
 70
     0
  3
ISO dot . . . . . . . . . . . . . . . . . . . .
 72
    65
 73
     2
 40
3.0
 49
0.0
 49
-3.0
  0
LTYPE
  2
DASHED2
 70
     0
  3
Dashed (.5x) _ _ _ _ _ _ _ _ _ _ _ _ _ _ _ _ _
 72
    65
 73
     2
 40
0.375
 49
0.25
 49
-0.125
  0
ENDTAB
  0
TABLE
  2
LAYER
 70
     7
  0
LAYER
  2
0
 70
     0
 62
     7
  6
CONTINUOUS
  0
LAYER
  2
CONTUR
 70
     0
 62
     7
  6
CONTINUOUS
  0
LAYER
  2
COTE
 70
     0
 62
     4
  6
CONTINUOUS
  0
LAYER
  2
HASH
 70
     0
 62
     3
  6
CONTINUOUS
  0
LAYER
  2
AXE
 70
     0
 62
     1
  6
ACAD_ISO08W100
  0
LAYER
  2
DEFPOINTS
 70
     0
 62
     7
  6
CONTINUOUS
  0
LAYER
  2
PUNCTAT
 70
     0
 62
     4
  6
DASHED2
  0
ENDTAB
  0
TABLE
  2
STYLE
 70
     3
  0
STYLE
  2
STANDARD
 70
     0
 40
0.0
 41
1.0
 50
0.0
 71
     0
 42
0.2
  3
txt
  4

  0
STYLE
  2
ANNOTATIVE
 70
     0
 40
0.0
 41
1.0
 50
0.0
 71
     0
 42
1.8
  3
txt
  4

  0
STYLE
  2

 70
     1
 40
0.0
 41
1.0
 50
0.0
 71
     0
 42
0.2
  3
ltypeshp.shx
  4

  0
ENDTAB
  0
TABLE
  2
VIEW
 70
     2
  0
ENDTAB
  0
TABLE
  2
UCS
 70
     0
  0
ENDTAB
  0
TABLE
  2
APPID
 70
    19
  0
APPID
  2
ACAD
 70
     0
  0
APPID
  2
ACADANNOPO
 70
     0
  0
APPID
  2
ACADANNOTATIVE
 70
     0
  0
APPID
  2
ACAD_DSTYLE_DIMJAG
 70
     0
  0
APPID
  2
ACAD_DSTYLE_DIMTALN
 70
     0
  0
APPID
  2
ACAD_MLEADERVER
 70
     0
  0
APPID
  2
ACAD_NAV_VCDISPLAY
 70
     0
  0
APPID
  2
ACAD_EXEMPT_FROM_CAD_STANDARDS
 70
     0
  0
APPID
  2
ACAD_TC
 70
     0
  0
APPID
  2
ACAECLAYERSTANDARD
 70
     0
  0
APPID
  2
ACCMTRANSPARENCY
 70
     0
  0
APPID
  2
GRADIENTCOLOR1ACI
 70
     0
  0
APPID
  2
GRADIENTCOLOR2ACI
 70
     0
  0
APPID
  2
ACAD_DSTYLE_DIMRADIAL_EXTENSION
 70
     0
  0
APPID
  2
ACAD_DSTYLE_DIMBREAK
 70
     0
  0
APPID
  2
ACADANNOMONITORALERTICONDI
 70
     0
  0
APPID
  2
ACAD_PSEXT
 70
     0
  0
APPID
  2
ACDBDYNAMICBLOCKTRUENAME2
 70
     0
  0
APPID
  2
AcDbAttr
 70
     0
  0
ENDTAB
  0
TABLE
  2
DIMSTYLE
 70
     3
  0
DIMSTYLE
  2
STANDARD
 70
     0
  3

  4

  5

  6

  7

 40
10.0
 41
2.0
 42
0.0625
 43
0.38
 44
0.18
 45
0.0
 46
0.0
 47
0.0
 48
0.0
140
1.0
141
0.09
142
0.0
143
25.3999999999999986
144
1.0
145
0.0
146
1.0
147
0.09
 71
     0
 72
     0
 73
     0
 74
     0
 75
     0
 76
     0
 77
     1
 78
     0
170
     0
171
     2
172
     0
173
     0
174
     0
175
     0
176
     0
177
     0
178
     0
  0
DIMSTYLE
  2
ANNOTATIVE
 70
     0
  3

  4

  5

  6

  7

 40
0.0
 41
0.18
 42
0.0625
 43
0.38
 44
0.18
 45
0.0
 46
0.0
 47
0.0
 48
0.0
140
0.18
141
0.09
142
0.0
143
25.3999999999999986
144
1.0
145
0.0
146
1.0
147
0.09
 71
     0
 72
     0
 73
     1
 74
     1
 75
     0
 76
     0
 77
     0
 78
     0
170
     0
171
     2
172
     0
173
     0
174
     0
175
     0
176
     0
177
     0
178
     0
  0
DIMSTYLE
  2
COTE
 70
     0
  3

  4

  5

  6

  7

 40
2.0
 41
2.0
 42
0.0625
 43
0.38
 44
0.18
 45
0.0
 46
0.0
 47
0.0
 48
0.0
140
1.0
141
0.09
142
0.0
143
25.3999999999999986
144
1.0
145
0.0
146
1.0
147
0.09
 71
     0
 72
     0
 73
     0
 74
     0
 75
     0
 76
     0
 77
     1
 78
     0
170
     0
171
     2
172
     0
173
     0
174
     0
175
     0
176
     0
177
     0
178
     0
  0
ENDTAB
  0
ENDSEC
  0
SECTION
  2
BLOCKS
  0
BLOCK
  8
0
  2
$MODEL_SPACE
 70
     2
 10
0.0
 20
0.0
 30
0.0
  3
$MODEL_SPACE
  1

  0
ENDBLK
  5
21
  8
0
  0
BLOCK
 67
     1
  8
0
  2
$PAPER_SPACE
 70
     0
 10
0.0
 20
0.0
 30
0.0
  3
$PAPER_SPACE
  1

  0
ENDBLK
  5
5B
 67
     1
  8
0
  0
BLOCK
  8
0
  2
*D2
 70
     1
 10
0.0
 20
0.0
 30
0.0
  3
*D2
  1

  0
ARC
  5
34E
  8
COTE
 62
     0
 10
66.3316184186926989
 20
-152.0032357352245924
 30
0.0
 40
31.9673183793788382
 50
157.4290984625737906
 51
202.5709015374262094
  0
SOLID
  5
34F
  8
COTE
 62
     0
 10
36.214439826693031
 20
-139.4394372123186088
 30
0.0
 11
37.4112166330020983
 21
-140.0272322902654025
 31
0.0
 12
38.5762134636878287
 22
-136.1430043323647965
 32
0.0
 13
38.5762134636878287
 23
-136.1430043323647965
 33
0.0
  0
SOLID
  5
350
  8
COTE
 62
     0
 10
37.4112166330021125
 20
-163.9792391801840097
 30
0.0
 11
36.214439826693031
 21
-164.5670342581306898
 31
0.0
 12
38.5762134636878429
 22
-167.8634671380845873
 32
0.0
 13
38.5762134636878429
 23
-167.8634671380845873
 33
0.0
  0
INSERT
  5
351
  8
0
  2
*U17
 10
0.0
 20
0.0
 30
0.0
  0
POINT
  5
352
  8
DEFPOINTS
 62
     0
 10
34.8417511077870827
 20
-146.4989009788594956
 30
0.0
  0
POINT
  5
353
  8
DEFPOINTS
 62
     0
 10
24.3316184186926598
 20
-128.0032357352245924
 30
0.0
  0
POINT
  5
354
  8
DEFPOINTS
 62
     0
 10
24.3316184186926598
 20
-176.0032357352245924
 30
0.0
  0
POINT
  5
355
  8
DEFPOINTS
 62
     0
 10
52.3316184186926705
 20
-160.0032357352247061
 30
0.0
  0
POINT
  5
356
  8
DEFPOINTS
 62
     0
 10
52.3316184186926705
 20
-144.0032357352247061
 30
0.0
  0
ENDBLK
  5
30E
  8
0
  0
BLOCK
  8
0
  2
*D3
 70
     1
 10
0.0
 20
0.0
 30
0.0
  3
*D3
  1

  0
LINE
  5
362
  8
COTE
 62
     0
 10
-5.668381581307357
 20
-152.1282357352245924
 30
0.0
 11
-5.6683815813073597
 21
-190.1862772110602009
 31
0.0
  0
LINE
  5
363
  8
COTE
 62
     0
 10
20.3316184186926385
 20
-152.1282357352245924
 30
0.0
 11
20.3316184186926385
 21
-190.1862772110602009
 31
0.0
  0
LINE
  5
364
  8
COTE
 62
     0
 10
-1.6683815813073599
 20
-189.8262772110601873
 30
0.0
 11
16.3316184186926385
 21
-189.8262772110601873
 31
0.0
  0
SOLID
  5
365
  8
COTE
 62
     0
 10
-1.6683815813073599
 20
-189.1596105443935016
 30
0.0
 11
-1.6683815813073599
 21
-190.4929438777267876
 31
0.0
 12
-5.6683815813073597
 22
-189.8262772110601873
 32
0.0
 13
-5.6683815813073597
 23
-189.8262772110601873
 33
0.0
  0
SOLID
  5
366
  8
COTE
 62
     0
 10
16.3316184186926385
 20
-189.1596105443935016
 30
0.0
 11
16.3316184186926385
 21
-190.4929438777267876
 31
0.0
 12
20.3316184186926385
 22
-189.8262772110601873
 32
0.0
 13
20.3316184186926385
 23
-189.8262772110601873
 33
0.0
  0
INSERT
  5
367
  8
0
  2
*U18
 10
0.0
 20
0.0
 30
0.0
  0
POINT
  5
368
  8
DEFPOINTS
 62
     0
 10
-5.668381581307357
 20
-152.0032357352245924
 30
0.0
  0
POINT
  5
369
  8
DEFPOINTS
 62
     0
 10
20.3316184186926385
 20
-152.0032357352245924
 30
0.0
  0
POINT
  5
36A
  8
DEFPOINTS
 62
     0
 10
20.3316184186926385
 20
-189.8262772110601873
 30
0.0
  0
ENDBLK
  5
339
  8
0
  0
BLOCK
  8
0
  2
*D4
 70
     1
 10
0.0
 20
0.0
 30
0.0
  3
*D4
  1

  0
LINE
  5
395
  8
COTE
 62
     0
 10
76.3316184186926279
 20
-152.1282357352245924
 30
0.0
 11
76.3316184186926279
 21
-190.0774434658304131
 31
0.0
  0
LINE
  5
396
  8
COTE
 62
     0
 10
24.3316184186926385
 20
-152.1282357352245924
 30
0.0
 11
24.3316184186926385
 21
-190.0774434658304131
 31
0.0
  0
LINE
  5
397
  8
COTE
 62
     0
 10
72.3316184186926279
 20
-189.7174434658303994
 30
0.0
 11
28.3316184186926385
 21
-189.7174434658303994
 31
0.0
  0
SOLID
  5
398
  8
COTE
 62
     0
 10
72.3316184186926279
 20
-189.0507767991637991
 30
0.0
 11
72.3316184186926279
 21
-190.3841101324971135
 31
0.0
 12
76.3316184186926279
 22
-189.7174434658303994
 32
0.0
 13
76.3316184186926279
 23
-189.7174434658303994
 33
0.0
  0
SOLID
  5
399
  8
COTE
 62
     0
 10
28.3316184186926385
 20
-189.0507767991637991
 30
0.0
 11
28.3316184186926385
 21
-190.3841101324971135
 31
0.0
 12
24.3316184186926385
 22
-189.7174434658303994
 32
0.0
 13
24.3316184186926385
 23
-189.7174434658303994
 33
0.0
  0
INSERT
  5
39A
  8
0
  2
*U19
 10
0.0
 20
0.0
 30
0.0
  0
POINT
  5
39B
  8
DEFPOINTS
 62
     0
 10
76.3316184186926279
 20
-152.0032357352245924
 30
0.0
  0
POINT
  5
39C
  8
DEFPOINTS
 62
     0
 10
24.3316184186926385
 20
-152.0032357352245924
 30
0.0
  0
POINT
  5
39D
  8
DEFPOINTS
 62
     0
 10
24.3316184186926385
 20
-189.7174434658303994
 30
0.0
  0
ENDBLK
  5
36E
  8
0
  0
BLOCK
  8
0
  2
*D5
 70
     1
 10
0.0
 20
0.0
 30
0.0
  3
*D5
  1

  0
LINE
  5
3C8
  8
COTE
 62
     0
 10
76.3316184186926279
 20
-152.1282357352245924
 30
0.0
 11
76.3316184186926279
 21
-178.5282172754108103
 31
0.0
  0
LINE
  5
3C9
  8
COTE
 62
     0
 10
52.3316184186926421
 20
-152.1282357352245924
 30
0.0
 11
52.3316184186926421
 21
-178.5282172754108103
 31
0.0
  0
LINE
  5
3CA
  8
COTE
 62
     0
 10
72.3316184186926279
 20
-178.1682172754107967
 30
0.0
 11
56.3316184186926421
 21
-178.1682172754107967
 31
0.0
  0
SOLID
  5
3CB
  8
COTE
 62
     0
 10
72.3316184186926279
 20
-177.5015506087441111
 30
0.0
 11
72.3316184186926279
 21
-178.8348839420775107
 31
0.0
 12
76.3316184186926279
 22
-178.1682172754107967
 32
0.0
 13
76.3316184186926279
 23
-178.1682172754107967
 33
0.0
  0
SOLID
  5
3CC
  8
COTE
 62
     0
 10
56.3316184186926421
 20
-177.5015506087441111
 30
0.0
 11
56.3316184186926421
 21
-178.8348839420775107
 31
0.0
 12
52.3316184186926421
 22
-178.1682172754107967
 32
0.0
 13
52.3316184186926421
 23
-178.1682172754107967
 33
0.0
  0
INSERT
  5
3CD
  8
0
  2
*U20
 10
0.0
 20
0.0
 30
0.0
  0
POINT
  5
3CE
  8
DEFPOINTS
 62
     0
 10
76.3316184186926279
 20
-152.0032357352245924
 30
0.0
  0
POINT
  5
3CF
  8
DEFPOINTS
 62
     0
 10
52.3316184186926421
 20
-152.0032357352245924
 30
0.0
  0
POINT
  5
3D0
  8
DEFPOINTS
 62
     0
 10
52.3316184186926421
 20
-178.1682172754107967
 30
0.0
  0
ENDBLK
  5
3A1
  8
0
  0
BLOCK
  8
0
  2
*D6
 70
     1
 10
0.0
 20
0.0
 30
0.0
  3
*D6
  1

  0
LINE
  5
3EB
  8
COTE
 62
     0
 10
59.9316184186926293
 20
-152.1282357352245924
 30
0.0
 11
59.9316184186926293
 21
-170.9356708690000914
 31
0.0
  0
LINE
  5
3EC
  8
COTE
 62
     0
 10
52.3316184186926421
 20
-152.1282357352245924
 30
0.0
 11
52.3316184186926421
 21
-170.9356708690000914
 31
0.0
  0
LINE
  5
3ED
  8
COTE
 62
     0
 10
63.9316184186926435
 20
-170.5756708689999925
 30
0.0
 11
67.9316184186926364
 21
-170.5756708689999925
 31
0.0
  0
LINE
  5
3EE
  8
COTE
 62
     0
 10
48.3316184186926421
 20
-170.5756708689999925
 30
0.0
 11
40.3481532072328832
 21
-170.5756708689999925
 31
0.0
  0
SOLID
  5
3EF
  8
COTE
 62
     0
 10
63.9316184186926435
 20
-169.9090042023333922
 30
0.0
 11
63.9316184186926435
 21
-171.2423375356667066
 31
0.0
 12
59.9316184186926293
 22
-170.5756708689999925
 32
0.0
 13
59.9316184186926293
 23
-170.5756708689999925
 33
0.0
  0
SOLID
  5
3F0
  8
COTE
 62
     0
 10
48.3316184186926421
 20
-169.9090042023333922
 30
0.0
 11
48.3316184186926421
 21
-171.2423375356667066
 31
0.0
 12
52.3316184186926421
 22
-170.5756708689999925
 32
0.0
 13
52.3316184186926421
 23
-170.5756708689999925
 33
0.0
  0
INSERT
  5
3F1
  8
0
  2
*U21
 10
0.0
 20
0.0
 30
0.0
  0
POINT
  5
3F2
  8
DEFPOINTS
 62
     0
 10
59.9316184186926293
 20
-152.0032357352245924
 30
0.0
  0
POINT
  5
3F3
  8
DEFPOINTS
 62
     0
 10
52.3316184186926421
 20
-152.0032357352245924
 30
0.0
  0
POINT
  5
3F4
  8
DEFPOINTS
 62
     0
 10
52.3316184186926421
 20
-170.5756708689999925
 30
0.0
  0
ENDBLK
  5
3D4
  8
0
  0
BLOCK
  8
0
  2
*D7
 70
     1
 10
0.0
 20
0.0
 30
0.0
  3
*D7
  1

  0
LINE
  5
416
  8
COTE
 62
     0
 10
74.4566184186926563
 20
-144.0032357352247061
 30
0.0
 11
91.238635289207636
 21
-144.0032357352247061
 31
0.0
  0
LINE
  5
417
  8
COTE
 62
     0
 10
74.4566184186926705
 20
-160.0032357352245924
 30
0.0
 11
91.238635289207636
 21
-160.0032357352245924
 31
0.0
  0
LINE
  5
418
  8
COTE
 62
     0
 10
90.8786352892076081
 20
-148.0032357352245924
 30
0.0
 11
90.8786352892076081
 21
-156.0032357352245924
 31
0.0
  0
SOLID
  5
419
  8
COTE
 62
     0
 10
90.2119686225409509
 20
-148.0032357352245924
 30
0.0
 11
91.5453019558742938
 21
-148.0032357352245924
 31
0.0
 12
90.8786352892076081
 22
-144.0032357352247061
 32
0.0
 13
90.8786352892076081
 23
-144.0032357352247061
 33
0.0
  0
SOLID
  5
41A
  8
COTE
 62
     0
 10
90.2119686225409509
 20
-156.0032357352245924
 30
0.0
 11
91.5453019558742938
 21
-156.0032357352245924
 31
0.0
 12
90.8786352892076366
 22
-160.0032357352245924
 32
0.0
 13
90.8786352892076366
 23
-160.0032357352245924
 33
0.0
  0
INSERT
  5
41B
  8
0
  2
*U22
 10
0.0
 20
0.0
 30
0.0
  0
POINT
  5
41C
  8
DEFPOINTS
 62
     0
 10
74.3316184186926563
 20
-144.0032357352247061
 30
0.0
  0
POINT
  5
41D
  8
DEFPOINTS
 62
     0
 10
74.3316184186926705
 20
-160.0032357352245924
 30
0.0
  0
POINT
  5
41E
  8
DEFPOINTS
 62
     0
 10
90.8786352892076366
 20
-160.0032357352245924
 30
0.0
  0
ENDBLK
  5
3F8
  8
0
  0
BLOCK
  8
0
  2
*D8
 70
     1
 10
0.0
 20
0.0
 30
0.0
  3
*D8
  1

  0
LINE
  5
445
  8
COTE
 62
     0
 10
137.0853685896522052
 20
-152.1282357352245924
 30
0.0
 11
137.0853685896522052
 21
-192.2470065768440008
 31
0.0
  0
LINE
  5
446
  8
COTE
 62
     0
 10
115.0853685896522052
 20
-152.1282357352245924
 30
0.0
 11
115.0853685896522052
 21
-192.2470065768440008
 31
0.0
  0
LINE
  5
447
  8
COTE
 62
     0
 10
133.0853685896522052
 20
-191.8870065768439872
 30
0.0
 11
119.0853685896522052
 21
-191.8870065768439872
 31
0.0
  0
SOLID
  5
448
  8
COTE
 62
     0
 10
133.0853685896522052
 20
-191.2203399101773016
 30
0.0
 11
133.0853685896522052
 21
-192.5536732435105876
 31
0.0
 12
137.0853685896522052
 22
-191.8870065768439872
 32
0.0
 13
137.0853685896522052
 23
-191.8870065768439872
 33
0.0
  0
SOLID
  5
449
  8
COTE
 62
     0
 10
119.0853685896522052
 20
-191.2203399101773016
 30
0.0
 11
119.0853685896522052
 21
-192.5536732435105876
 31
0.0
 12
115.0853685896522052
 22
-191.8870065768439872
 32
0.0
 13
115.0853685896522052
 23
-191.8870065768439872
 33
0.0
  0
INSERT
  5
44A
  8
0
  2
*U23
 10
0.0
 20
0.0
 30
0.0
  0
POINT
  5
44B
  8
DEFPOINTS
 62
     0
 10
137.0853685896522052
 20
-152.0032357352245924
 30
0.0
  0
POINT
  5
44C
  8
DEFPOINTS
 62
     0
 10
115.0853685896522052
 20
-152.0032357352245924
 30
0.0
  0
POINT
  5
44D
  8
DEFPOINTS
 62
     0
 10
115.0853685896522052
 20
-191.8870065768439872
 30
0.0
  0
ENDBLK
  5
43A
  8
0
  0
BLOCK
  8
0
  2
*D9
 70
     1
 10
0.0
 20
0.0
 30
0.0
  3
*D9
  1

  0
LINE
  5
45D
  8
COTE
 62
     0
 10
115.0853685896522052
 20
-152.1282357352245924
 30
0.0
 11
115.0853685896522052
 21
-197.0741947296774867
 31
0.0
  0
LINE
  5
45E
  8
COTE
 62
     0
 10
159.0853685896522052
 20
-152.1282357352245924
 30
0.0
 11
159.0853685896522052
 21
-197.0741947296774867
 31
0.0
  0
LINE
  5
45F
  8
COTE
 62
     0
 10
119.0853685896522052
 20
-196.7141947296775015
 30
0.0
 11
155.0853685896522052
 21
-196.7141947296775015
 31
0.0
  0
SOLID
  5
460
  8
COTE
 62
     0
 10
119.0853685896522052
 20
-196.0475280630107875
 30
0.0
 11
119.0853685896522052
 21
-197.3808613963441019
 31
0.0
 12
115.0853685896522052
 22
-196.7141947296775015
 32
0.0
 13
115.0853685896522052
 23
-196.7141947296775015
 33
0.0
  0
SOLID
  5
461
  8
COTE
 62
     0
 10
155.0853685896522052
 20
-196.0475280630107875
 30
0.0
 11
155.0853685896522052
 21
-197.3808613963441019
 31
0.0
 12
159.0853685896522052
 22
-196.7141947296775015
 32
0.0
 13
159.0853685896522052
 23
-196.7141947296775015
 33
0.0
  0
INSERT
  5
462
  8
0
  2
*U24
 10
0.0
 20
0.0
 30
0.0
  0
POINT
  5
463
  8
DEFPOINTS
 62
     0
 10
115.0853685896522052
 20
-152.0032357352245924
 30
0.0
  0
POINT
  5
464
  8
DEFPOINTS
 62
     0
 10
159.0853685896522052
 20
-152.0032357352245924
 30
0.0
  0
POINT
  5
465
  8
DEFPOINTS
 62
     0
 10
159.0853685896522052
 20
-196.7141947296775015
 30
0.0
  0
ENDBLK
  5
452
  8
0
  0
BLOCK
  8
0
  2
*D10
 70
     1
 10
0.0
 20
0.0
 30
0.0
  3
*D10
  1

  0
LINE
  5
5B5
  8
COTE
 62
     0
 10
120.1797678564078069
 20
-141.6678007228663034
 30
0.0
 11
154.3237841653792941
 21
-162.5049346498892078
 31
0.0
  0
SOLID
  5
5B6
  8
COTE
 62
     0
 10
120.5270534218580991
 20
-141.0987337843833984
 30
0.0
 11
119.832482290957401
 21
-142.2368676613490948
 31
0.0
 12
116.7653662255106042
 22
-139.5840873301640102
 32
0.0
 13
116.7653662255106042
 23
-139.5840873301640102
 33
0.0
  0
SOLID
  5
5B7
  8
COTE
 62
     0
 10
154.6710697308296858
 20
-161.935867711406388
 30
0.0
 11
153.9764985999289024
 21
-163.0740015883721128
 31
0.0
 12
157.7381857962764968
 22
-164.5886480425915011
 32
0.0
 13
157.7381857962764968
 23
-164.5886480425915011
 33
0.0
  0
INSERT
  5
5B8
  8
0
  2
*U49
 10
0.0
 20
0.0
 30
0.0
  0
POINT
  5
5B9
  8
DEFPOINTS
 62
     0
 10
157.7381857962764968
 20
-164.5886480425915011
 30
0.0
  0
POINT
  5
5BA
  8
DEFPOINTS
 62
     0
 10
116.7653662255106042
 20
-139.5840873301640102
 30
0.0
  0
ENDBLK
  5
46A
  8
0
  0
BLOCK
  8
0
  2
_DATUMFILLED
 70
     0
 10
0.0
 20
0.0
 30
0.0
  3
_DATUMFILLED
  1

  0
SOLID
  5
4D5
  8
0
  6
BYBLOCK
 62
     0
 10
0.0
 20
0.5773502700000001
 30
0.0
 11
-1.0
 21
0.0
 31
0.0
 12
0.0
 22
-0.5773502700000001
 32
0.0
 13
0.0
 23
-0.5773502700000001
 33
0.0
  0
ENDBLK
  5
4D7
  8
0
  0
BLOCK
  8
0
  2
*D12
 70
     1
 10
0.0
 20
0.0
 30
0.0
  3
*D12
  1

  0
ARC
  5
4E8
  8
COTE
 62
     0
 10
93.1331942350512492
 20
-29.3004518079030696
 30
0.0
 40
15.7996713121177006
 50
14.5445833165919201
 51
30.4554166834080817
  0
SOLID
  5
4E9
  8
COTE
 62
     0
 10
109.0878297500274954
 20
-25.2482387655918785
 30
0.0
 11
107.7652220496640041
 21
-25.4170186480329399
 31
0.0
 12
108.9328655471689018
 22
-29.3004518079030696
 32
0.0
 13
108.9328655471689018
 23
-29.3004518079030696
 33
0.0
  0
SOLID
  5
4EA
  8
COTE
 62
     0
 10
106.2256022469028949
 20
-21.7000476393090906
 30
0.0
 11
107.2801725200815071
 21
-20.8841681649344189
 31
0.0
 12
104.3052489603682034
 22
-18.1283970825860905
 32
0.0
 13
104.3052489603682034
 23
-18.1283970825860905
 33
0.0
  0
INSERT
  5
4EB
  8
0
  2
*U26
 10
0.0
 20
0.0
 30
0.0
  0
POINT
  5
4EC
  8
DEFPOINTS
 62
     0
 10
108.3945048023042972
 20
-25.2111959659670717
 30
0.0
  0
POINT
  5
4ED
  8
DEFPOINTS
 62
     0
 10
93.1331942350511639
 20
-29.3004518079031691
 30
0.0
  0
POINT
  5
4EE
  8
DEFPOINTS
 62
     0
 10
93.1331942350511639
 20
-29.3004518079030696
 30
0.0
  0
POINT
  5
4EF
  8
DEFPOINTS
 62
     0
 10
109.7616351606094014
 20
-29.3004518079030589
 30
0.0
  0
POINT
  5
4F0
  8
DEFPOINTS
 62
     0
 10
118.3219684747730014
 20
-4.1116775681812854
 30
0.0
  0
ENDBLK
  5
4DD
  8
0
  0
BLOCK
  8
0
  2
*D13
 70
     1
 10
0.0
 20
0.0
 30
0.0
  3
*D13
  1

  0
LINE
  5
579
  8
COTE
 62
     0
 10
5.6057807848801042
 20
-146.0032357352247061
 30
0.0
 11
11.8407807848800992
 21
-146.0032357352247061
 31
0.0
  0
LINE
  5
57A
  8
COTE
 62
     0
 10
5.6057807848800776
 20
-158.0032357352247061
 30
0.0
 11
11.8407807848801099
 21
-158.0032357352247061
 31
0.0
  0
LINE
  5
57B
  8
COTE
 62
     0
 10
11.4807807848801104
 20
-162.0032357352247061
 30
0.0
 11
11.4807807848801104
 21
-166.0032357352247061
 31
0.0
  0
LINE
  5
57C
  8
COTE
 62
     0
 10
11.4807807848800998
 20
-142.0032357352247061
 30
0.0
 11
11.4807807848800998
 21
-132.6227718880213899
 31
0.0
  0
SOLID
  5
57D
  8
COTE
 62
     0
 10
10.8141141182134408
 20
-162.0032357352247061
 30
0.0
 11
12.1474474515467801
 21
-162.0032357352247061
 31
0.0
 12
11.4807807848801104
 22
-158.0032357352247061
 32
0.0
 13
11.4807807848801104
 23
-158.0032357352247061
 33
0.0
  0
SOLID
  5
57E
  8
COTE
 62
     0
 10
10.8141141182134408
 20
-142.0032357352247061
 30
0.0
 11
12.1474474515467694
 21
-142.0032357352247061
 31
0.0
 12
11.4807807848800998
 22
-146.0032357352247061
 32
0.0
 13
11.4807807848800998
 23
-146.0032357352247061
 33
0.0
  0
INSERT
  5
57F
  8
0
  2
*U39
 10
0.0
 20
0.0
 30
0.0
  0
POINT
  5
580
  8
DEFPOINTS
 62
     0
 10
5.4807807848801042
 20
-146.0032357352247061
 30
0.0
  0
POINT
  5
581
  8
DEFPOINTS
 62
     0
 10
5.4807807848800776
 20
-158.0032357352247061
 30
0.0
  0
POINT
  5
582
  8
DEFPOINTS
 62
     0
 10
11.4807807848801104
 20
-158.0032357352247061
 30
0.0
  0
ENDBLK
  5
51A
  8
0
  0
BLOCK
  8
0
  2
*X14
 70
     1
 10
0.0
 20
0.0
 30
0.0
  3
*X14
  1

  0
LINE
  5
6F1
  8
0
 62
     0
 10
72.1441668806583323
 20
-116.3179858221823935
 30
0.0
 11
75.282803973576307
 21
-113.1793487292644045
 31
0.0
  0
LINE
  5
6F2
  8
0
 62
     0
 10
69.4312272312121337
 20
-117.2631585186621948
 30
0.0
 11
76.227976670056151
 21
-110.4664090798182059
 31
0.0
  0
LINE
  5
6F3
  8
0
 62
     0
 10
68.1316184186926534
 20
-116.7950003782153061
 30
0.0
 11
75.7598185296092481
 21
-109.1668002672986972
 31
0.0
  0
LINE
  5
6F4
  8
0
 62
     0
 10
75.7598185296092481
 20
-109.1668002672986972
 30
0.0
 11
76.3129419361406178
 21
-108.6136768607672991
 31
0.0
  0
LINE
  5
6F5
  8
0
 62
     0
 10
67.5784950121613122
 20
-117.3481237847467042
 30
0.0
 11
68.1316184186926534
 21
-116.7950003782153061
 31
0.0
  0
LINE
  5
6F6
  8
0
 62
     0
 10
68.1316184186926534
 20
-115.0272334252488946
 30
0.0
 11
73.9920515766428792
 21
-109.1668002672986972
 31
0.0
  0
LINE
  5
6F7
  8
0
 62
     0
 10
67.8008794934789734
 20
-115.3579723504626031
 30
0.0
 11
68.1316184186926534
 21
-115.0272334252488946
 31
0.0
  0
LINE
  5
6F8
  8
0
 62
     0
 10
73.9920515766428792
 20
-109.1668002672986972
 30
0.0
 11
76.0652169339484061
 21
-107.0936349099931988
 31
0.0
  0
LINE
  5
6F9
  8
0
 62
     0
 10
66.0584530613871408
 20
-117.1003987825543931
 30
0.0
 11
67.8008794934789591
 21
-115.3579723504626031
 31
0.0
  0
LINE
  5
6FA
  8
0
 62
     0
 10
68.1316184186926534
 20
-113.2594664722825968
 30
0.0
 11
72.2242846236765104
 21
-109.1668002672986972
 31
0.0
  0
LINE
  5
6FB
  8
0
 62
     0
 10
66.3007720265460421
 20
-115.090312864429194
 30
0.0
 11
68.1316184186926534
 21
-113.2594664722825968
 31
0.0
  0
LINE
  5
6FC
  8
0
 62
     0
 10
72.2242846236765104
 20
-109.1668002672986972
 30
0.0
 11
75.6031262495823455
 21
-105.7879586413929047
 31
0.0
  0
LINE
  5
6FD
  8
0
 62
     0
 10
64.7527767927868183
 20
-116.6383080981884035
 30
0.0
 11
66.3007720265460421
 21
-115.090312864429194
 31
0.0
  0
LINE
  5
6FE
  8
0
 62
     0
 10
68.1316184186926534
 20
-111.4916995193161995
 30
0.0
 11
70.4565176707101415
 21
-109.1668002672986972
 31
0.0
  0
LINE
  5
6FF
  8
0
 62
     0
 10
65.0669282472743049
 20
-114.5563896907346049
 30
0.0
 11
68.1316184186926534
 21
-111.4916995193161995
 31
0.0
  0
LINE
  5
700
  8
0
 62
     0
 10
70.4565176707101415
 20
-109.1668002672986972
 30
0.0
 11
74.9746235516031447
 21
-104.648694386405694
 31
0.0
  0
LINE
  5
701
  8
0
 62
     0
 10
63.6135125377996431
 20
-116.0098054002092027
 30
0.0
 11
65.0669282472743049
 21
-114.5563896907346049
 31
0.0
  0
LINE
  5
702
  8
0
 62
     0
 10
68.1316184186926534
 20
-109.7239325663498022
 30
0.0
 11
68.6887507177437726
 21
-109.1668002672986972
 31
0.0
  0
LINE
  5
703
  8
0
 62
     0
 10
64.0349816128870657
 20
-113.8205693721554042
 30
0.0
 11
68.1316184186926534
 21
-109.7239325663498022
 31
0.0
  0
LINE
  5
704
  8
0
 62
     0
 10
68.6887507177437726
 20
-109.1668002672986972
 30
0.0
 11
74.2017647412226893
 21
-103.6537862438197948
 31
0.0
  0
LINE
  5
705
  8
0
 62
     0
 10
62.6186043952137581
 20
-115.2369465898287046
 30
0.0
 11
64.0349816128870657
 21
-113.8205693721554042
 31
0.0
  0
LINE
  5
706
  8
0
 62
     0
 10
66.9209837647774037
 20
-109.1668002672986972
 30
0.0
 11
68.1316184186926534
 21
-107.9561656133835044
 31
0.0
  0
LINE
  5
707
  8
0
 62
     0
 10
63.1842288982213489
 20
-112.9035551338547947
 30
0.0
 11
66.9209837647774037
 21
-109.1668002672986972
 31
0.0
  0
LINE
  5
708
  8
0
 62
     0
 10
68.1316184186926534
 20
-107.9561656133835044
 30
0.0
 11
73.2928937541037442
 21
-102.7948902779722999
 31
0.0
  0
LINE
  5
709
  8
0
 62
     0
 10
61.7597084293663201
 20
-114.3280756027098022
 30
0.0
 11
63.1842288982213489
 21
-112.9035551338547947
 31
0.0
  0
LINE
  5
70A
  8
0
 62
     0
 10
65.1532168118110349
 20
-109.1668002672986972
 30
0.0
 11
68.1316184186926534
 21
-106.1883986604171071
 31
0.0
  0
LINE
  5
70B
  8
0
 62
     0
 10
62.5190353910297105
 20
-111.8009816880800997
 30
0.0
 11
65.1532168118110349
 21
-109.1668002672986972
 31
0.0
  0
LINE
  5
70C
  8
0
 62
     0
 10
68.1316184186926534
 20
-106.1883986604171071
 30
0.0
 11
72.2461914300155286
 21
-102.0738256490942035
 31
0.0
  0
LINE
  5
70D
  8
0
 62
     0
 10
61.0386438004881668
 20
-113.2813732786216008
 30
0.0
 11
62.5190353910296892
 21
-111.8009816880800997
 31
0.0
  0
LINE
  5
70E
  8
0
 62
     0
 10
63.3854498588446731
 20
-109.1668002672986972
 30
0.0
 11
68.1316184186926534
 21
-104.4206317074506956
 31
0.0
  0
LINE
  5
70F
  8
0
 62
     0
 10
62.0722798067430688
 20
-110.4799703194002944
 30
0.0
 11
63.3854498588446731
 21
-109.1668002672986972
 31
0.0
  0
LINE
  5
710
  8
0
 62
     0
 10
68.1316184186926534
 20
-104.4206317074506956
 30
0.0
 11
71.048947260669209
 21
-101.5033028654741969
 31
0.0
  0
LINE
  5
711
  8
0
 62
     0
 10
60.4681210168681176
 20
-112.0841291092751959
 30
0.0
 11
62.0722798067430404
 21
-110.4799703194003939
 31
0.0
  0
LINE
  5
712
  8
0
 62
     0
 10
61.9400022960030867
 20
-108.8444808771738934
 30
0.0
 11
67.8092990285678638
 21
-102.9751841446091021
 31
0.0
  0
LINE
  5
713
  8
0
 62
     0
 10
67.8092990285678638
 20
-102.9751841446091021
 30
0.0
 11
68.1316184186926819
 21
-102.6528647544842983
 31
0.0
  0
LINE
  5
714
  8
0
 62
     0
 10
61.61768290587829
 20
-109.1668002672986972
 30
0.0
 11
61.9400022960030867
 21
-108.8444808771738934
 31
0.0
  0
LINE
  5
715
  8
0
 62
     0
 10
68.1316184186926819
 20
-102.6528647544842983
 30
0.0
 11
69.6717498934588377
 21
-101.1127332797181992
 31
0.0
  0
LINE
  5
716
  8
0
 62
     0
 10
60.077551431112127
 20
-110.7069317420648957
 30
0.0
 11
61.61768290587829
 21
-109.1668002672986972
 31
0.0
  0
LINE
  5
717
  8
0
 62
     0
 10
62.5508536234415828
 20
-106.465862596769
 30
0.0
 11
65.4306807481629988
 21
-103.5860354720475982
 31
0.0
  0
LINE
  5
718
  8
0
 62
     0
 10
65.4306807481629988
 20
-103.5860354720475982
 30
0.0
 11
68.0495048056873628
 21
-100.9672114145233053
 31
0.0
  0
LINE
  5
719
  8
0
 62
     0
 10
59.9320295659172331
 20
-109.0846866542934066
 30
0.0
 11
62.5508536234415828
 21
-106.465862596769
 31
0.0
  0
LINE
  5
71A
  8
0
 62
     0
 10
60.21343574876812
 20
-107.035513518476094
 30
0.0
 11
66.0003316698700928
 21
-101.2486175973742064
 31
0.0
  0
ENDBLK
  5
71C
  8
0
  0
BLOCK
  8
0
  2
*U15
 70
     1
 10
0.0
 20
0.0
 30
0.0
  3
*U15
  1

  0
TEXT
  5
71E
  8
CONTUR
 10
53.0971062311316331
 20
-140.864336030666891
 30
0.0
 40
4.5905713876505514
  1
B
  0
ENDBLK
  5
720
  8
0
  0
BLOCK
  8
0
  2
*U16
 70
     1
 10
0.0
 20
0.0
 30
0.0
  3
*U16
  1

  0
TEXT
  5
722
  8
COTE
 62
     0
 10
7.283653983586202
 20
-205.8920894103335968
 30
0.0
 40
0.18
  1
12.0000
  0
ENDBLK
  5
724
  8
0
  0
BLOCK
  8
0
  2
*U17
 70
     1
 10
0.0
 20
0.0
 30
0.0
  3
*U17
  1

  0
TEXT
  5
726
  8
COTE
 62
     0
 10
34.146100857867701
 20
-154.075541328676195
 30
0.0
 40
2.0
  1
60°
 50
90.0
  0
ENDBLK
  5
728
  8
0
  0
BLOCK
  8
0
  2
*U18
 70
     1
 10
0.0
 20
0.0
 30
0.0
  3
*U18
  1

  0
TEXT
  5
72A
  8
COTE
 62
     0
 10
5.80092264788773
 20
-189.6080780296140915
 30
0.0
 40
2.0
  1
26
  0
ENDBLK
  5
72C
  8
0
  0
BLOCK
  8
0
  2
*U19
 70
     1
 10
0.0
 20
0.0
 30
0.0
  3
*U19
  1

  0
TEXT
  5
72E
  8
COTE
 62
     0
 10
48.7934192372465176
 20
-189.4992442843843037
 30
0.0
 40
2.0
  1
52
  0
ENDBLK
  5
730
  8
0
  0
BLOCK
  8
0
  2
*U20
 70
     1
 10
0.0
 20
0.0
 30
0.0
  3
*U20
  1

  0
TEXT
  5
732
  8
COTE
 62
     0
 10
62.8043332890882695
 20
-177.9841245059701009
 30
0.0
 40
2.0
  1
24
  0
ENDBLK
  5
734
  8
0
  0
BLOCK
  8
0
  2
*U21
 70
     1
 10
0.0
 20
0.0
 30
0.0
  3
*U21
  1

  0
TEXT
  5
736
  8
COTE
 62
     0
 10
40.395820328651709
 20
-170.3574716875540105
 30
0.0
 40
2.0
  1
7.6
  0
ENDBLK
  5
738
  8
0
  0
BLOCK
  8
0
  2
*U22
 70
     1
 10
0.0
 20
0.0
 30
0.0
  3
*U22
  1

  0
TEXT
  5
73A
  8
COTE
 62
     0
 10
90.6604361077614413
 20
-154.7603980817457909
 30
0.0
 40
2.0
  1
M16
 50
90.0
  0
ENDBLK
  5
73C
  8
0
  0
BLOCK
  8
0
  2
*U23
 70
     1
 10
0.0
 20
0.0
 30
0.0
  3
*U23
  1

  0
TEXT
  5
73E
  8
COTE
 62
     0
 10
124.564222614208802
 20
-191.7029138074032915
 30
0.0
 40
2.0
  1
22
  0
ENDBLK
  5
740
  8
0
  0
BLOCK
  8
0
  2
*U24
 70
     1
 10
0.0
 20
0.0
 30
0.0
  3
*U24
  1

  0
TEXT
  5
742
  8
COTE
 62
     0
 10
135.5812758202116015
 20
-196.5341947296774947
 30
0.0
 40
2.0
  1
44
  0
ENDBLK
  5
744
  8
0
  0
BLOCK
  8
0
  2
*U25
 70
     1
 10
0.0
 20
0.0
 30
0.0
  3
*U25
  1

  0
INSERT
  5
746
  8
COTE
  2
_DATUMFILLED
 10
-16.950918476735751
 20
-152.0188462710653141
 30
0.0
 41
4.0
 42
4.0
 43
4.0
 50
269.7757707647966186
  0
POLYLINE
  5
747
  8
COTE
 66
     1
 10
0.0
 20
0.0
 30
0.0
  0
VERTEX
  5
748
  8
COTE
 10
-16.9352643629608792
 20
-148.0188769025922966
 30
0.0
  0
VERTEX
  5
749
  8
COTE
 10
-16.8886223189047087
 20
-136.1008117734670009
 30
0.0
  0
VERTEX
  5
74A
  8
COTE
 10
-20.8879137412923193
 20
-136.0914682953159058
 30
0.0
  0
VERTEX
  5
74B
  8
COTE
 10
-16.7079137412923195
 20
-136.0914682953159058
 30
0.0
  0
SEQEND
  5
74C
  8
COTE
  0
ENDBLK
  5
74E
  8
0
  0
BLOCK
  8
0
  2
*U26
 70
     1
 10
0.0
 20
0.0
 30
0.0
  3
*U26
  1

  0
TEXT
  5
750
  8
COTE
 62
     0
 10
107.1482716931304964
 20
-21.2898240807042711
 30
0.0
 40
2.0
  1
45°
 50
292.5
  0
ENDBLK
  5
752
  8
0
  0
BLOCK
  8
0
  2
*U27
 70
     1
 10
0.0
 20
0.0
 30
0.0
  3
*U27
  1

  0
SOLID
  5
754
  8
PUNCTAT
 62
     4
 10
74.9834676596739342
 20
-139.1246996909594031
 30
0.0
 11
71.5040247215110867
 21
-141.2074673891229111
 31
0.0
 12
74.1198974365850773
 22
-138.1088137487533061
 32
0.0
 13
74.1198974365850773
 23
-138.1088137487533061
 33
0.0
  0
POLYLINE
  5
755
  8
PUNCTAT
 62
     4
 66
     1
 10
0.0
 20
0.0
 30
0.0
  0
VERTEX
  5
756
  8
PUNCTAT
 62
     4
 10
74.5516825481295058
 20
-138.6167567198563972
 30
0.0
  0
VERTEX
  5
757
  8
PUNCTAT
 62
     4
 10
79.576661758528644
 20
-134.3451921303143877
 30
0.0
  0
VERTEX
  5
758
  8
PUNCTAT
 62
     4
 10
92.2177804488424187
 20
-134.3451921303143877
 30
0.0
  0
SEQEND
  5
759
  8
PUNCTAT
 62
     4
  0
ENDBLK
  5
75B
  8
0
  0
BLOCK
  8
0
  2
*U28
 70
     1
 10
0.0
 20
0.0
 30
0.0
  3
*U28
  1

  0
TEXT
  5
75D
  8
PUNCTAT
 62
     4
 10
83.6748063697155544
 20
-134.1310857183090093
 30
0.0
 40
2.0
  1
2 x 45°
  0
ENDBLK
  5
75F
  8
0
  0
BLOCK
  8
0
  2
*U29
 70
     1
 10
0.0
 20
0.0
 30
0.0
  3
*U29
  1

  0
SOLID
  5
761
  8
COTE
 10
77.9756021212900947
 20
-155.7102240047013026
 30
0.0
 11
76.3316184186926279
 21
-152.0032357352245924
 31
0.0
 12
79.0890046031421576
 22
-154.9766623568602029
 32
0.0
 13
79.0890046031421576
 23
-154.9766623568602029
 33
0.0
  0
POLYLINE
  5
762
  8
COTE
 66
     1
 10
0.0
 20
0.0
 30
0.0
  0
VERTEX
  5
763
  8
COTE
 10
78.5323033622161262
 20
-155.3434431807808096
 30
0.0
  0
VERTEX
  5
764
  8
COTE
 10
84.3144760952645811
 20
-164.119645549620401
 30
0.0
  0
VERTEX
  5
765
  8
COTE
 10
84.3144760952645811
 20
-194.7139302693960872
 30
0.0
  0
SEQEND
  5
766
  8
COTE
  0
ENDBLK
  5
768
  8
0
  0
BLOCK
  8
0
  2
*U30
 70
     1
 10
0.0
 20
0.0
 30
0.0
  3
*U30
  1

  0
SOLID
  5
76A
  8
COTE
 10
-7.1460300375076233
 20
-148.2268618813359922
 30
0.0
 11
-5.668381581307357
 21
-152.0032357352245924
 31
0.0
 12
-8.2909270465417482
 22
-148.9102275349083868
 32
0.0
 13
-8.2909270465417482
 23
-148.9102275349083868
 33
0.0
  0
POLYLINE
  5
76B
  8
COTE
 66
     1
 10
0.0
 20
0.0
 30
0.0
  0
VERTEX
  5
76C
  8
COTE
 10
-7.7184785420246849
 20
-148.5685447081222037
 30
0.0
  0
VERTEX
  5
76D
  8
COTE
 10
-10.0192192151199002
 20
-144.7139302693960872
 30
0.0
  0
VERTEX
  5
76E
  8
COTE
 10
-10.0192192151199002
 20
-114.2139302693961014
 30
0.0
  0
SEQEND
  5
76F
  8
COTE
  0
ENDBLK
  5
771
  8
0
  0
BLOCK
  8
0
  2
*U31
 70
     1
 10
0.0
 20
0.0
 30
0.0
  3
*U31
  1

  0
SOLID
  5
773
  8
COTE
 10
-1.6623857681262659
 20
-138.3860580962218023
 30
0.0
 11
0.550852334700636
 21
-141.7840018192165985
 31
0.0
 12
-2.6447870781339291
 22
-139.2875376821654072
 32
0.0
 13
-2.6447870781339291
 23
-139.2875376821654072
 33
0.0
  0
POLYLINE
  5
774
  8
COTE
 66
     1
 10
0.0
 20
0.0
 30
0.0
  0
VERTEX
  5
775
  8
COTE
 10
-2.1535864231300978
 20
-138.8367978891936048
 30
0.0
  0
VERTEX
  5
776
  8
COTE
 10
-5.0192192151199029
 20
-135.7139302693960872
 30
0.0
  0
VERTEX
  5
777
  8
COTE
 10
-5.0192192151199029
 20
-113.7139302693961014
 30
0.0
  0
SEQEND
  5
778
  8
COTE
  0
ENDBLK
  5
77A
  8
0
  0
BLOCK
  8
0
  2
*U32
 70
     1
 10
0.0
 20
0.0
 30
0.0
  3
*U32
  1

  0
SOLID
  5
77C
  8
COTE
 10
16.6456238881425804
 20
-159.6937648728616068
 30
0.0
 11
20.3316184186926385
 21
-158.0032357352247061
 31
0.0
 12
17.3931465560545604
 22
-160.7978426050595999
 32
0.0
 13
17.3931465560545604
 23
-160.7978426050595999
 33
0.0
  0
POLYLINE
  5
77D
  8
COTE
 66
     1
 10
0.0
 20
0.0
 30
0.0
  0
VERTEX
  5
77E
  8
COTE
 10
17.0193852220985704
 20
-160.2458037389606034
 30
0.0
  0
VERTEX
  5
77F
  8
COTE
 10
-9.5192192151199038
 20
-178.2139302693960872
 30
0.0
  0
VERTEX
  5
780
  8
COTE
 10
-9.5192192151199038
 20
-201.2139302693960872
 30
0.0
  0
SEQEND
  5
781
  8
COTE
  0
ENDBLK
  5
783
  8
0
  0
BLOCK
  8
0
  2
*U33
 70
     1
 10
0.0
 20
0.0
 30
0.0
  3
*U33
  1

  0
TEXT
  5
785
  8
0
 10
-10.6853299188456301
 20
-202.3512636092299886
 30
0.0
 40
2.1199999999999992
  1
Degajare 0.4 x 0.2
 50
90.0
  0
TEXT
  5
786
  8
0
 10
-7.1433199142981083
 20
-196.0115113854919002
 30
0.0
 40
2.1199999999999992
  1
NP 0002
 50
90.0
  0
ENDBLK
  5
788
  8
0
  0
BLOCK
  8
0
  2
*U34
 70
     1
 10
0.0
 20
0.0
 30
0.0
  3
*U34
  1

  0
TEXT
  5
78A
  8
0
 10
-2.6295239539991702
 20
-127.0597420631293062
 30
0.0
 40
1.8
  1
2 X 45°
 50
90.0
  0
ENDBLK
  5
78C
  8
0
  0
BLOCK
  8
0
  2
*U35
 70
     1
 10
0.0
 20
0.0
 30
0.0
  3
*U35
  1

  0
TEXT
  5
78E
  8
0
 10
-10.2031803018378096
 20
-135.5338258576333885
 30
0.0
 40
1.8
  1
STAS 1361-73
 50
90.0
  0
TEXT
  5
78F
  8
0
 10
-7.1724845310329037
 20
-139.2142489817807984
 30
0.0
 40
1.8
  1
Gaura de centrare A1
 50
90.0
  0
ENDBLK
  5
791
  8
0
  0
BLOCK
  8
0
  2
*U36
 70
     1
 10
0.0
 20
0.0
 30
0.0
  3
*U36
  1

  0
TEXT
  5
793
  8
0
 10
83.6343110466862356
 20
-184.9022673711959044
 30
0.0
 40
1.8
  1
STAS 1361-73
 50
90.0
  0
TEXT
  5
794
  8
0
 10
86.6650068174911468
 20
-188.5826904953432006
 30
0.0
 40
1.8
  1
Gaura de centrare A1
 50
90.0
  0
ENDBLK
  5
796
  8
0
  0
BLOCK
  8
0
  2
*U37
 70
     1
 10
0.0
 20
0.0
 30
0.0
  3
*U37
  1

  0
SOLID
  5
798
  8
COTE
 10
12.1474474515467605
 20
-142.0032357352245924
 30
0.0
 11
11.4807807848800891
 21
-146.0032357352245924
 31
0.0
 12
10.8141141182134302
 22
-142.0032357352245924
 32
0.0
 13
10.8141141182134302
 23
-142.0032357352245924
 33
0.0
  0
POLYLINE
  5
799
  8
COTE
 66
     1
 10
0.0
 20
0.0
 30
0.0
  0
VERTEX
  5
79A
  8
COTE
 10
11.4807807848800891
 20
-142.0032357352245924
 30
0.0
  0
VERTEX
  5
79B
  8
COTE
 10
11.4807807848800891
 20
-113.7139302693961014
 30
0.0
  0
SEQEND
  5
79C
  8
COTE
  0
ENDBLK
  5
79E
  8
0
  0
BLOCK
  8
0
  2
*U38
 70
     1
 10
0.0
 20
0.0
 30
0.0
  3
*U38
  1

  0
TEXT
  5
7A0
  8
0
 10
10.9193414855511808
 20
-129.6384153717881986
 30
0.0
 40
1.8
  1
0
 50
90.0
  0
TEXT
  5
7A1
  8
0
 10
13.9267084705443605
 20
-129.6138587551442072
 30
0.0
 40
1.8
  1
-0.008
 50
90.0
  0
ENDBLK
  5
7A3
  8
0
  0
BLOCK
  8
0
  2
*U39
 70
     1
 10
0.0
 20
0.0
 30
0.0
  3
*U39
  1

  0
TEXT
  5
7A5
  8
COTE
 62
     0
 10
11.1834547275812906
 20
-137.9364690230827932
 30
0.0
 40
2.0
  1
Ø12
 50
90.0
  0
ENDBLK
  5
7A7
  8
0
  0
BLOCK
  8
0
  2
*U40
 70
     1
 10
0.0
 20
0.0
 30
0.0
  3
*U40
  1

  0
TEXT
  5
7A9
  8
0
 10
146.2908247316860866
 20
-193.559134431234213
 30
0.0
 40
1.8
  1
-0.1
  0
TEXT
  5
7AA
  8
0
 10
146.2908247316860866
 20
-196.5665014162273962
 30
0.0
 40
1.8
  1
-0.2
  0
ENDBLK
  5
7AC
  8
0
  0
BLOCK
  8
0
  2
*U41
 70
     1
 10
0.0
 20
0.0
 30
0.0
  3
*U41
  1

  0
TEXT
  5
7AE
  8
0
 10
69.1514511201279731
 20
-6.9328562987775513
 30
0.0
 40
3.0
  1
B
  0
TEXT
  5
7AF
  8
0
 10
67.9757961269492768
 20
-11.9451346070995097
 30
0.0
 40
3.0
  1
5:1
  0
ENDBLK
  5
7B1
  8
0
  0
BLOCK
  8
0
  2
*U42
 70
     1
 10
0.0
 20
0.0
 30
0.0
  3
*U42
  1

  0
SOLID
  5
7B3
  8
PUNCTAT
 10
59.0433076410932287
 20
-37.2767036839898722
 30
0.0
 11
55.4807807848801033
 21
-39.2139302693960872
 31
0.0
 12
58.2224489184634706
 22
-36.2260045190237818
 32
0.0
 13
58.2224489184634706
 23
-36.2260045190237818
 33
0.0
  0
POLYLINE
  5
7B4
  8
PUNCTAT
 66
     1
 10
0.0
 20
0.0
 30
0.0
  0
VERTEX
  5
7B5
  8
PUNCTAT
 10
58.6328782797783532
 20
-36.751354101506827
 30
0.0
  0
VERTEX
  5
7B6
  8
PUNCTAT
 10
71.4807807848800962
 20
-26.7139302693960907
 30
0.0
  0
SEQEND
  5
7B7
  8
PUNCTAT
  0
ENDBLK
  5
7B9
  8
0
  0
BLOCK
  8
0
  2
*U43
 70
     1
 10
0.0
 20
0.0
 30
0.0
  3
*U43
  1

  0
SOLID
  5
7BB
  8
COTE
 10
80.8276985904772687
 20
-35.7775540518392816
 30
0.0
 11
82.9807807848800962
 21
-39.2139302693960872
 31
0.0
 12
79.8295810169130533
 22
-36.6616010455675934
 32
0.0
 13
79.8295810169130533
 23
-36.6616010455675934
 33
0.0
  0
POLYLINE
  5
7BC
  8
COTE
 66
     1
 10
0.0
 20
0.0
 30
0.0
  0
VERTEX
  5
7BD
  8
COTE
 10
80.3286398036951681
 20
-36.219577548703441
 30
0.0
  0
VERTEX
  5
7BE
  8
COTE
 10
67.4807807848800962
 20
-21.7139302693960907
 30
0.0
  0
VERTEX
  5
7BF
  8
COTE
 10
76.9807807848800962
 20
-21.7139302693960907
 30
0.0
  0
VERTEX
  5
7C0
  8
COTE
 10
77.1607807848801031
 20
-21.7139302693960907
 30
0.0
  0
SEQEND
  5
7C1
  8
COTE
  0
ENDBLK
  5
7C3
  8
0
  0
BLOCK
  8
0
  2
*U44
 70
     1
 10
0.0
 20
0.0
 30
0.0
  3
*U44
  1

  0
TEXT
  5
7C5
  8
PUNCTAT
 10
67.8862259393056746
 20
-21.5715135591371592
 30
0.0
 40
1.8
  1
R 0.12
  0
ENDBLK
  5
7C7
  8
0
  0
BLOCK
  8
0
  2
*U45
 70
     1
 10
0.0
 20
0.0
 30
0.0
  3
*U45
  1

  0
SOLID
  5
7C9
  8
COTE
 10
47.3141141182134319
 20
-43.3004518079030376
 30
0.0
 11
47.9807807848801033
 21
-39.3004518079030518
 31
0.0
 12
48.6474474515467605
 22
-43.3004518079030376
 32
0.0
 13
48.6474474515467605
 23
-43.3004518079030376
 33
0.0
  0
POLYLINE
  5
7CA
  8
COTE
 66
     1
 10
0.0
 20
0.0
 30
0.0
  0
VERTEX
  5
7CB
  8
COTE
 10
47.9807807848801033
 20
-43.3004518079030376
 30
0.0
  0
VERTEX
  5
7CC
  8
COTE
 10
47.9807807848801033
 20
-81.7139302693960872
 30
0.0
  0
SEQEND
  5
7CD
  8
COTE
  0
ENDBLK
  5
7CF
  8
0
  0
BLOCK
  8
0
  2
*U46
 70
     1
 10
0.0
 20
0.0
 30
0.0
  3
*U46
  1

  0
TEXT
  5
7D1
  8
0
 10
26.9691846047982402
 20
-49.4147488232842207
 30
0.0
 40
0.2
  1
0
  0
ENDBLK
  5
7D3
  8
0
  0
BLOCK
  8
0
  2
*U47
 70
     1
 10
0.0
 20
0.0
 30
0.0
  3
*U47
  1

  0
TEXT
  5
7D5
  8
0
 10
44.3229475854162871
 20
-72.3182958901327879
 30
0.0
 40
1.8
  1
0
 50
90.0
  0
TEXT
  5
7D6
  8
0
 10
47.3303145704094632
 20
-72.2937392734888533
 30
0.0
 40
1.8
  1
-0.008
 50
90.0
  0
ENDBLK
  5
7D8
  8
0
  0
BLOCK
  8
0
  2
*U48
 70
     1
 10
0.0
 20
0.0
 30
0.0
  3
*U48
  1

  0
TEXT
  5
7DA
  8
0
 10
47.4099572360170001
 20
-81.4327214913875395
 30
0.0
 40
1.8
  1
Ø12
 50
90.0
  0
ENDBLK
  5
7DC
  8
0
  0
BLOCK
  8
0
  2
*U49
 70
     1
 10
0.0
 20
0.0
 30
0.0
  3
*U49
  1

  0
TEXT
  5
7DE
  8
COTE
 62
     0
 10
146.5026457616723121
 20
-157.3835936486013907
 30
0.0
 40
2.0
  1
Ø48
 50
328.6054561200330113
  0
ENDBLK
  5
7E0
  8
0
  0
ENDSEC
  0
SECTION
  2
ENTITIES
  0
POLYLINE
  5
237
  8
0
 66
     1
 10
0.0
 20
0.0
 30
0.0
 70
     1
  0
VERTEX
  5
6EB
  8
0
 10
182.9807807848800962
 20
-231.2139302693960872
 30
0.0
  0
VERTEX
  5
6EC
  8
0
 10
-27.0192192151199109
 20
-231.2139302693960872
 30
0.0
  0
VERTEX
  5
6ED
  8
0
 10
-27.0192192151199109
 20
12.0316519963523092
 30
0.0
  0
VERTEX
  5
6EE
  8
0
 10
182.9807807848800962
 20
12.0316519963523092
 30
0.0
  0
SEQEND
  5
6EF
  8
0
  0
LINE
  5
241
  8
AXE
 10
-20.2047520037376707
 20
-152.0032357352245924
 30
0.0
 11
171.1340943084084927
 21
-152.0032357352245924
 31
0.0
  0
LINE
  5
242
  8
CONTUR
 10
-3.6683815813073739
 20
-146.0032357352245924
 30
0.0
 11
20.3316184186926492
 21
-146.0032357352245924
 31
0.0
  0
LINE
  5
244
  8
CONTUR
 10
-3.6683815813073131
 20
-158.0032357352245924
 30
0.0
 11
20.3316184186926492
 21
-158.0032357352247061
 31
0.0
  0
LINE
  5
245
  8
CONTUR
 10
-5.668381581307357
 20
-148.0032357352245924
 30
0.0
 11
-5.668381581307357
 21
-156.0032357352245924
 31
0.0
  0
LINE
  5
246
  8
CONTUR
 10
20.3316184186926385
 20
-144.0032357352245924
 30
0.0
 11
24.3316184186926385
 21
-144.0032357352245924
 31
0.0
  0
LINE
  5
247
  8
CONTUR
 10
20.3316184186926385
 20
-160.0032357352245924
 30
0.0
 11
24.3316184186926492
 21
-160.0032357352245924
 31
0.0
  0
LINE
  5
248
  8
CONTUR
 10
20.3316184186926385
 20
-128.0032357352245924
 30
0.0
 11
24.3316184186926385
 21
-128.0032357352245924
 31
0.0
  0
LINE
  5
24A
  8
CONTUR
 10
76.3316184186926279
 20
-146.0032357352245924
 30
0.0
 11
76.3316184186926279
 21
-158.0032357352245924
 31
0.0
  0
LINE
  5
24B
  8
CONTUR
 10
24.3316184186926385
 20
-128.0032357352245924
 30
0.0
 11
24.3316184186926492
 21
-176.0032357352245924
 31
0.0
  0
LINE
  5
24C
  8
CONTUR
 10
52.3316184186926421
 20
-144.0032357352245924
 30
0.0
 11
52.3316184186926421
 21
-160.0032357352245924
 31
0.0
  0
LINE
  5
24E
  8
CONTUR
 10
59.9316184186926435
 20
-144.0032357352245924
 30
0.0
 11
59.9316184186926293
 21
-160.0032357352245924
 31
0.0
  0
LINE
  5
24F
  8
CONTUR
 10
20.3316184186926385
 20
-128.0032357352245924
 30
0.0
 11
20.3316184186926385
 21
-176.0032357352245924
 31
0.0
  0
LINE
  5
250
  8
CONTUR
 10
59.9316184186926506
 20
-144.0032357352245924
 30
0.0
 11
74.3316184186926563
 21
-144.0032357352245924
 31
0.0
  0
LINE
  5
251
  8
CONTUR
 10
59.9316184186926435
 20
-160.0032357352245924
 30
0.0
 11
74.3316184186926137
 21
-160.0032357352245924
 31
0.0
  0
LINE
  5
252
  8
CONTUR
 10
52.4516184186926395
 20
-146.0032357352245924
 30
0.0
 11
57.8819127912078883
 21
-146.0032357352245924
 31
0.0
  0
LINE
  5
253
  8
CONTUR
 10
52.4516184186926324
 20
-158.0032357352245924
 30
0.0
 11
57.8819127912078812
 21
-158.0032357352245924
 31
0.0
  0
LINE
  5
254
  8
CONTUR
 10
24.3316184186926385
 20
-128.0032357352245924
 30
0.0
 11
52.3316184186926421
 21
-144.0032357352245924
 31
0.0
  0
LINE
  5
255
  8
CONTUR
 10
24.3316184186926385
 20
-176.0032357352245924
 30
0.0
 11
52.3316184186926421
 21
-160.0032357352245924
 31
0.0
  0
LINE
  5
256
  8
CONTUR
 10
57.9667656049502611
 20
-145.9680885489669038
 30
0.0
 11
59.9316184186926435
 21
-144.0032357352245924
 31
0.0
  0
LINE
  5
257
  8
CONTUR
 10
57.9667656049502611
 20
-158.0383829214823095
 30
0.0
 11
59.9316184186926293
 21
-160.0032357352245924
 31
0.0
  0
LINE
  5
258
  8
CONTUR
 10
74.3316184186926279
 20
-144.0032357352245924
 30
0.0
 11
76.3316184186926279
 21
-146.0032357352245924
 31
0.0
  0
LINE
  5
259
  8
CONTUR
 10
74.3316184186926421
 20
-160.0032357352245924
 30
0.0
 11
76.3316184186926421
 21
-158.0032357352245924
 31
0.0
  0
LINE
  5
25A
  8
CONTUR
 10
-3.668381581307357
 20
-146.0032357352245924
 30
0.0
 11
-5.668381581307357
 21
-148.0032357352245924
 31
0.0
  0
LINE
  5
25B
  8
CONTUR
 10
-5.668381581307357
 20
-156.0032357352245924
 30
0.0
 11
-3.668381581307357
 21
-158.0032357352245924
 31
0.0
  0
LINE
  5
25C
  8
0
 10
59.9316184186926435
 20
-146.0032357352245924
 30
0.0
 11
76.3316184186926279
 21
-146.0032357352245924
 31
0.0
  0
LINE
  5
25D
  8
0
 10
59.9316184186926293
 20
-158.0032357352245924
 30
0.0
 11
76.3316184186926279
 21
-158.0032357352245924
 31
0.0
  0
LINE
  5
25E
  8
CONTUR
 10
59.9316184186926293
 20
-144.0032357352245924
 30
0.0
 11
68.1316184186926392
 21
-144.0032357352245924
 31
0.0
  0
LINE
  5
25F
  8
AXE
 10
68.1316184186926392
 20
-173.3914297660828083
 30
0.0
 11
68.1316184186926392
 21
-131.2139302693960872
 31
0.0
  0
ARC
  5
261
  8
CONTUR
 10
52.4516184186926395
 20
-145.8832357352245879
 30
0.0
 40
0.12
 50
180.0
 51
270.0
  0
ARC
  5
262
  8
CONTUR
 10
57.8819127912078883
 20
-145.8832357352245879
 30
0.0
 40
0.12
 50
270.0
 51
315.0000000000001137
  0
ARC
  5
263
  8
CONTUR
 10
57.8819127912078812
 20
-158.123235735224597
 30
0.0
 40
0.12
 50
44.9999999999999432
 51
90.0
  0
ARC
  5
264
  8
CONTUR
 10
52.4516184186926324
 20
-158.123235735224597
 30
0.0
 40
0.12
 50
90.0
 51
180.0
  0
LINE
  5
265
  8
0
 10
57.8819127912078883
 20
-146.8832357352245879
 30
0.0
 11
57.8819127912078812
 21
-157.0032357352245924
 31
0.0
  0
LINE
  5
266
  8
CONTUR
 10
74.3316184186926279
 20
-144.0032357352245924
 30
0.0
 11
74.3316184186926137
 21
-160.0032357352245924
 31
0.0
  0
LINE
  5
267
  8
CONTUR
 10
-3.6683815813073859
 20
-146.0032357352245924
 30
0.0
 11
-3.668381581307357
 21
-158.0032357352245924
 31
0.0
  0
LINE
  5
268
  8
AXE
 10
137.0853685896522052
 20
-172.4237876343678977
 30
0.0
 11
137.0853685896522052
 21
-122.4237876343678977
 31
0.0
  0
ARC
  5
269
  8
CONTUR
 10
137.0853685896522052
 20
-152.0032357352245924
 30
0.0
 40
24.0
 50
23.5564643091011483
 51
156.4435356908988126
  0
CIRCLE
  5
26C
  8
CONTUR
 10
137.0853685896522052
 20
-152.0032357352245924
 30
0.0
 40
6.0000000000000284
  0
CIRCLE
  5
26D
  8
CONTUR
 10
137.0853685896522052
 20
-152.0032357352245924
 30
0.0
 40
8.0
  0
CIRCLE
  5
26E
  8
CONTUR
 10
137.0853685896522052
 20
-152.0032357352245924
 30
0.0
 40
2.0
  0
LINE
  5
26F
  8
CONTUR
 10
115.0853685896522052
 20
-161.5948987818499916
 30
0.0
 11
115.0853685896522052
 21
-142.4115726885991933
 31
0.0
  0
LINE
  5
270
  8
CONTUR
 10
159.0853685896522052
 20
-161.5948987818499916
 30
0.0
 11
159.0853685896522052
 21
-142.4115726885991933
 31
0.0
  0
ARC
  5
271
  8
CONTUR
 10
137.0853685896522052
 20
-152.0032357352245924
 30
0.0
 40
24.0
 50
203.5564643091011021
 51
336.4435356908987842
  0
LINE
  5
272
  8
AXE
 10
39.1864217879176522
 20
-109.1668002672986972
 30
0.0
 11
96.4896726965232574
 21
-109.1668002672986972
 31
0.0
  0
ARC
  5
275
  8
0
 10
68.1316184186926392
 20
-109.1668002672986972
 30
0.0
 40
6.1999999999999877
 50
90.0
 51
358.7944971851450759
  0
CIRCLE
  5
276
  8
CONTUR
 10
68.1316184186926392
 20
-109.1668002672986972
 30
0.0
 40
8.1999999999999886
  0
INSERT
  5
2BA
  8
HASH
  6
CONTINUOUS
  2
*X14
 10
0.0
 20
0.0
 30
0.0
1001
GRADIENTCOLOR1ACI
1070
     5
1001
GRADIENTCOLOR2ACI
1070
     2
1001
ACAD
1000
HATCH
1002
{
1070
    19
1000
ANSI31
1040
10.0
1040
0.0
1000
R14_HATCH_DATA
1000
2BA
1011
1.0
1021
0.0
1031
0.0
1021
0.0
1031
0.0
1011
0.0
1021
0.0
1031
0.0
1021
1.0
1031
0.0
1011
0.0
1021
0.0
1031
0.0
1021
0.0
1031
1.0
1040
0.0
1010
0.0
1020
0.0
1030
1.0
1000
ANSI31
1070
     0
1070
     0
1071
        6
1071
       23
1070
     1
1070
     1
1071
        3
1040
68.1316184186926392
1040
-102.9668002672986944
1040
0.4142135623730951
1040
61.9316184186926506
1040
-109.1668002672986972
1040
0.0
1040
68.1316184186926392
1040
-109.1668002672986972
1040
0.0
1071
        0
1071
        7
1070
     1
1070
     1
1071
        4
1040
68.1316184186926392
1040
-100.9668002672986944
1040
0.4142135623730951
1040
59.9316184186926506
1040
-109.1668002672986972
1040
0.0
1040
61.9316184186926506
1040
-109.1668002672986972
1040
-0.4142135623730951
1040
68.1316184186926392
1040
-102.9668002672986944
1040
0.0
1071
        0
1071
        7
1070
     1
1070
     1
1071
        4
1040
68.1316184186926392
1040
-100.9668002672986944
1040
0.0
1040
68.1316184186926392
1040
-102.9668002672986944
1040
0.0
1040
68.1316184186926392
1040
-109.1668002672986972
1040
0.0
1040
76.3316184186926279
1040
-109.1668002672986972
1040
0.4142135623730951
1071
        0
1071
        7
1070
     1
1070
     1
1071
        3
1040
76.3316184186926279
1040
-109.1668002672986972
1040
0.0
1040
68.1316184186926392
1040
-109.1668002672986972
1040
0.0
1040
68.1316184186926392
1040
-117.3668002672987001
1040
0.4142135623730951
1071
        0
1071
       23
1070
     1
1070
     1
1071
        3
1040
68.1316184186926392
1040
-109.1668002672986972
1040
0.0
1040
61.9316184186926506
1040
-109.1668002672986972
1040
0.4142135623730935
1040
68.1316184186926392
1040
-115.3668002672987001
1040
0.0
1071
        0
1071
        7
1070
     1
1070
     1
1071
        4
1040
61.9316184186926506
1040
-109.1668002672986972
1040
0.0
1040
59.9316184186926506
1040
-109.1668002672986972
1040
0.4142135623730951
1040
68.1316184186926392
1040
-117.3668002672987001
1040
0.0
1040
68.1316184186926392
1040
-115.3668002672987001
1040
-0.4142135623730952
1071
        0
1070
     1
1070
     1
1040
0.0
1040
10.0
1070
     0
1070
     1
1040
0.7853981633974483
1040
-27.0192192151199109
1040
-213.713604964994289
1040
-0.8838834764831844
1040
0.8838834764831844
1070
     0
1040
0.0915177419879587
1071
        6
1040
66.9448485075029112
1040
-105.8222060625974024
1040
0.0
1040
67.8608147467225535
1040
-101.6123898931319047
1040
0.0
1040
71.9826541903278212
1040
-103.1681909802183981
1040
0.0
1040
70.6087082846515841
1040
-111.6793415442628969
1040
0.0
1040
66.1204806187818122
1040
-110.9471991048332029
1040
0.0
1040
65.0213228582947522
1040
-115.1570152742988
1040
0.0
1002
}
  0
CIRCLE
  5
2BB
  8
COTE
 10
53.3393459089984319
 20
-142.5353241401458888
 30
0.0
 40
10.0260016354816308
  0
LINE
  5
2BD
  8
CONTUR
 10
93.1331942350511781
 20
-29.3004518079031904
 30
0.0
 11
109.7616351606094014
 21
-29.3004518079031904
 31
0.0
  0
LINE
  5
2BE
  8
CONTUR
 10
55.7331942350512008
 20
-39.3004518079030731
 30
0.0
 11
82.8846660976274734
 21
-39.3004518079030731
 31
0.0
  0
ARC
  5
2BF
  8
CONTUR
 10
82.8846660976274734
 20
-38.7004518079030504
 30
0.0
 40
0.6
 50
270.0
 51
314.9999999999994884
  0
ARC
  5
2C0
  8
CONTUR
 10
55.7331942350512008
 20
-38.7004518079030504
 30
0.0
 40
0.6
 50
180.0
 51
270.0
  0
LINE
  5
2C1
  8
0
 10
93.1331942350511781
 20
-39.3004518079030731
 30
0.0
 11
107.2075356686083012
 21
-39.3004518079030731
 31
0.0
  0
LINE
  5
2C2
  8
CONTUR
 10
55.1331942350511781
 20
-29.3004518079031904
 30
0.0
 11
55.1331942350511781
 21
-71.8370389571989563
 31
0.0
  0
LINE
  5
2C3
  8
CONTUR
 10
93.1331942350511781
 20
-29.3004518079031904
 30
0.0
 11
93.1331942350511781
 21
-59.7308064457956718
 31
0.0
  0
LINE
  5
2C4
  8
CONTUR
 10
83.3089301663393371
 20
-39.124715876614907
 30
0.0
 11
93.1331942350511781
 21
-29.3004518079030696
 31
0.0
  0
LINE
  5
2C5
  8
CONTUR
 10
12.9319856043308601
 20
-5.1854754474916263
 30
0.0
 11
55.1331942350511781
 21
-29.3004518079031904
 31
0.0
  0
LINE
  5
2C6
  8
CONTUR
 10
93.1331942350511781
 20
-29.3004518079030696
 30
0.0
 11
109.7616351606094014
 21
-29.3004518079030696
 31
0.0
  0
LINE
  5
2C7
  8
0
 10
82.8846660976274734
 20
-43.7004518079030504
 30
0.0
 11
82.8846660976274734
 21
-66.6503206903623777
 31
0.0
  0
POLYLINE
  8
COTE
  5
7E4
  66
     1
 10
0.00000
 20
0.00000
 30
0.00000
  70
     8
  0
VERTEX
  8
COTE
  5
7E5
 10
12.9320
 20
-5.18548
 30
0.00000
  70
    32
  0
VERTEX
  8
COTE
  5
7E6
 10
13.1382
 20
-5.54099
 30
0.00000
  70
    32
  0
VERTEX
  8
COTE
  5
7E7
 10
13.3442
 20
-5.89652
 30
0.00000
  70
    32
  0
VERTEX
  8
COTE
  5
7E8
 10
13.5499
 20
-6.25205
 30
0.00000
  70
    32
  0
VERTEX
  8
COTE
  5
7E9
 10
13.7552
 20
-6.60760
 30
0.00000
  70
    32
  0
VERTEX
  8
COTE
  5
7EA
 10
13.9599
 20
-6.96316
 30
0.00000
  70
    32
  0
VERTEX
  8
COTE
  5
7EB
 10
14.1637
 20
-7.31875
 30
0.00000
  70
    32
  0
VERTEX
  8
COTE
  5
7EC
 10
14.3667
 20
-7.67437
 30
0.00000
  70
    32
  0
VERTEX
  8
COTE
  5
7ED
 10
14.5685
 20
-8.03002
 30
0.00000
  70
    32
  0
VERTEX
  8
COTE
  5
7EE
 10
14.7692
 20
-8.38571
 30
0.00000
  70
    32
  0
VERTEX
  8
COTE
  5
7EF
 10
14.9684
 20
-8.74144
 30
0.00000
  70
    32
  0
VERTEX
  8
COTE
  5
7F0
 10
15.1661
 20
-9.09721
 30
0.00000
  70
    32
  0
VERTEX
  8
COTE
  5
7F1
 10
15.3621
 20
-9.45304
 30
0.00000
  70
    32
  0
VERTEX
  8
COTE
  5
7F2
 10
15.5562
 20
-9.80893
 30
0.00000
  70
    32
  0
VERTEX
  8
COTE
  5
7F3
 10
15.7483
 20
-10.1649
 30
0.00000
  70
    32
  0
VERTEX
  8
COTE
  5
7F4
 10
15.9383
 20
-10.5209
 30
0.00000
  70
    32
  0
VERTEX
  8
COTE
  5
7F5
 10
16.1259
 20
-10.8770
 30
0.00000
  70
    32
  0
VERTEX
  8
COTE
  5
7F6
 10
16.3111
 20
-11.2331
 30
0.00000
  70
    32
  0
VERTEX
  8
COTE
  5
7F7
 10
16.4936
 20
-11.5894
 30
0.00000
  70
    32
  0
VERTEX
  8
COTE
  5
7F8
 10
16.6734
 20
-11.9457
 30
0.00000
  70
    32
  0
VERTEX
  8
COTE
  5
7F9
 10
16.8502
 20
-12.3021
 30
0.00000
  70
    32
  0
VERTEX
  8
COTE
  5
7FA
 10
17.0239
 20
-12.6586
 30
0.00000
  70
    32
  0
VERTEX
  8
COTE
  5
7FB
 10
17.1944
 20
-13.0152
 30
0.00000
  70
    32
  0
VERTEX
  8
COTE
  5
7FC
 10
17.3614
 20
-13.3719
 30
0.00000
  70
    32
  0
VERTEX
  8
COTE
  5
7FD
 10
17.5249
 20
-13.7287
 30
0.00000
  70
    32
  0
VERTEX
  8
COTE
  5
7FE
 10
17.6847
 20
-14.0856
 30
0.00000
  70
    32
  0
VERTEX
  8
COTE
  5
7FF
 10
17.8407
 20
-14.4427
 30
0.00000
  70
    32
  0
VERTEX
  8
COTE
  5
800
 10
17.9926
 20
-14.7998
 30
0.00000
  70
    32
  0
VERTEX
  8
COTE
  5
801
 10
18.1403
 20
-15.1571
 30
0.00000
  70
    32
  0
VERTEX
  8
COTE
  5
802
 10
18.2837
 20
-15.5145
 30
0.00000
  70
    32
  0
VERTEX
  8
COTE
  5
803
 10
18.4226
 20
-15.8721
 30
0.00000
  70
    32
  0
VERTEX
  8
COTE
  5
804
 10
18.5569
 20
-16.2298
 30
0.00000
  70
    32
  0
VERTEX
  8
COTE
  5
805
 10
18.6864
 20
-16.5876
 30
0.00000
  70
    32
  0
VERTEX
  8
COTE
  5
806
 10
18.8109
 20
-16.9456
 30
0.00000
  70
    32
  0
VERTEX
  8
COTE
  5
807
 10
18.9304
 20
-17.3038
 30
0.00000
  70
    32
  0
VERTEX
  8
COTE
  5
808
 10
19.0446
 20
-17.6621
 30
0.00000
  70
    32
  0
VERTEX
  8
COTE
  5
809
 10
19.1533
 20
-18.0206
 30
0.00000
  70
    32
  0
VERTEX
  8
COTE
  5
80A
 10
19.2565
 20
-18.3792
 30
0.00000
  70
    32
  0
VERTEX
  8
COTE
  5
80B
 10
19.3540
 20
-18.7380
 30
0.00000
  70
    32
  0
VERTEX
  8
COTE
  5
80C
 10
19.4456
 20
-19.0970
 30
0.00000
  70
    32
  0
VERTEX
  8
COTE
  5
80D
 10
19.5312
 20
-19.4562
 30
0.00000
  70
    32
  0
VERTEX
  8
COTE
  5
80E
 10
19.6105
 20
-19.8156
 30
0.00000
  70
    32
  0
VERTEX
  8
COTE
  5
80F
 10
19.6836
 20
-20.1751
 30
0.00000
  70
    32
  0
VERTEX
  8
COTE
  5
810
 10
19.7501
 20
-20.5349
 30
0.00000
  70
    32
  0
VERTEX
  8
COTE
  5
811
 10
19.8100
 20
-20.8948
 30
0.00000
  70
    32
  0
VERTEX
  8
COTE
  5
812
 10
19.8631
 20
-21.2550
 30
0.00000
  70
    32
  0
VERTEX
  8
COTE
  5
813
 10
19.9093
 20
-21.6153
 30
0.00000
  70
    32
  0
VERTEX
  8
COTE
  5
814
 10
19.9483
 20
-21.9759
 30
0.00000
  70
    32
  0
VERTEX
  8
COTE
  5
815
 10
19.9800
 20
-22.3367
 30
0.00000
  70
    32
  0
VERTEX
  8
COTE
  5
816
 10
20.0043
 20
-22.6978
 30
0.00000
  70
    32
  0
VERTEX
  8
COTE
  5
817
 10
20.0211
 20
-23.0590
 30
0.00000
  70
    32
  0
VERTEX
  8
COTE
  5
818
 10
20.0301
 20
-23.4205
 30
0.00000
  70
    32
  0
VERTEX
  8
COTE
  5
819
 10
20.0312
 20
-23.7822
 30
0.00000
  70
    32
  0
VERTEX
  8
COTE
  5
81A
 10
20.0243
 20
-24.1442
 30
0.00000
  70
    32
  0
VERTEX
  8
COTE
  5
81B
 10
20.0092
 20
-24.5065
 30
0.00000
  70
    32
  0
VERTEX
  8
COTE
  5
81C
 10
19.9858
 20
-24.8689
 30
0.00000
  70
    32
  0
VERTEX
  8
COTE
  5
81D
 10
19.9538
 20
-25.2317
 30
0.00000
  70
    32
  0
VERTEX
  8
COTE
  5
81E
 10
19.9137
 20
-25.5947
 30
0.00000
  70
    32
  0
VERTEX
  8
COTE
  5
81F
 10
19.8657
 20
-25.9579
 30
0.00000
  70
    32
  0
VERTEX
  8
COTE
  5
820
 10
19.8101
 20
-26.3213
 30
0.00000
  70
    32
  0
VERTEX
  8
COTE
  5
821
 10
19.7472
 20
-26.6850
 30
0.00000
  70
    32
  0
VERTEX
  8
COTE
  5
822
 10
19.6775
 20
-27.0490
 30
0.00000
  70
    32
  0
VERTEX
  8
COTE
  5
823
 10
19.6013
 20
-27.4131
 30
0.00000
  70
    32
  0
VERTEX
  8
COTE
  5
824
 10
19.5188
 20
-27.7774
 30
0.00000
  70
    32
  0
VERTEX
  8
COTE
  5
825
 10
19.4304
 20
-28.1419
 30
0.00000
  70
    32
  0
VERTEX
  8
COTE
  5
826
 10
19.3365
 20
-28.5066
 30
0.00000
  70
    32
  0
VERTEX
  8
COTE
  5
827
 10
19.2374
 20
-28.8715
 30
0.00000
  70
    32
  0
VERTEX
  8
COTE
  5
828
 10
19.1334
 20
-29.2366
 30
0.00000
  70
    32
  0
VERTEX
  8
COTE
  5
829
 10
19.0249
 20
-29.6018
 30
0.00000
  70
    32
  0
VERTEX
  8
COTE
  5
82A
 10
18.9122
 20
-29.9672
 30
0.00000
  70
    32
  0
VERTEX
  8
COTE
  5
82B
 10
18.7956
 20
-30.3327
 30
0.00000
  70
    32
  0
VERTEX
  8
COTE
  5
82C
 10
18.6755
 20
-30.6984
 30
0.00000
  70
    32
  0
VERTEX
  8
COTE
  5
82D
 10
18.5522
 20
-31.0642
 30
0.00000
  70
    32
  0
VERTEX
  8
COTE
  5
82E
 10
18.4261
 20
-31.4302
 30
0.00000
  70
    32
  0
VERTEX
  8
COTE
  5
82F
 10
18.2974
 20
-31.7962
 30
0.00000
  70
    32
  0
VERTEX
  8
COTE
  5
830
 10
18.1666
 20
-32.1624
 30
0.00000
  70
    32
  0
VERTEX
  8
COTE
  5
831
 10
18.0339
 20
-32.5286
 30
0.00000
  70
    32
  0
VERTEX
  8
COTE
  5
832
 10
17.8997
 20
-32.8950
 30
0.00000
  70
    32
  0
VERTEX
  8
COTE
  5
833
 10
17.7644
 20
-33.2614
 30
0.00000
  70
    32
  0
VERTEX
  8
COTE
  5
834
 10
17.6282
 20
-33.6279
 30
0.00000
  70
    32
  0
VERTEX
  8
COTE
  5
835
 10
17.4915
 20
-33.9945
 30
0.00000
  70
    32
  0
VERTEX
  8
COTE
  5
836
 10
17.3546
 20
-34.3611
 30
0.00000
  70
    32
  0
VERTEX
  8
COTE
  5
837
 10
17.2179
 20
-34.7278
 30
0.00000
  70
    32
  0
VERTEX
  8
COTE
  5
838
 10
17.0818
 20
-35.0946
 30
0.00000
  70
    32
  0
VERTEX
  8
COTE
  5
839
 10
16.9464
 20
-35.4613
 30
0.00000
  70
    32
  0
VERTEX
  8
COTE
  5
83A
 10
16.8123
 20
-35.8281
 30
0.00000
  70
    32
  0
VERTEX
  8
COTE
  5
83B
 10
16.6797
 20
-36.1950
 30
0.00000
  70
    32
  0
VERTEX
  8
COTE
  5
83C
 10
16.5489
 20
-36.5618
 30
0.00000
  70
    32
  0
VERTEX
  8
COTE
  5
83D
 10
16.4203
 20
-36.9287
 30
0.00000
  70
    32
  0
VERTEX
  8
COTE
  5
83E
 10
16.2942
 20
-37.2955
 30
0.00000
  70
    32
  0
VERTEX
  8
COTE
  5
83F
 10
16.1711
 20
-37.6623
 30
0.00000
  70
    32
  0
VERTEX
  8
COTE
  5
840
 10
16.0511
 20
-38.0291
 30
0.00000
  70
    32
  0
VERTEX
  8
COTE
  5
841
 10
15.9346
 20
-38.3959
 30
0.00000
  70
    32
  0
VERTEX
  8
COTE
  5
842
 10
15.8220
 20
-38.7627
 30
0.00000
  70
    32
  0
VERTEX
  8
COTE
  5
843
 10
15.7136
 20
-39.1294
 30
0.00000
  70
    32
  0
VERTEX
  8
COTE
  5
844
 10
15.6098
 20
-39.4961
 30
0.00000
  70
    32
  0
VERTEX
  8
COTE
  5
845
 10
15.5109
 20
-39.8627
 30
0.00000
  70
    32
  0
VERTEX
  8
COTE
  5
846
 10
15.4171
 20
-40.2292
 30
0.00000
  70
    32
  0
VERTEX
  8
COTE
  5
847
 10
15.3290
 20
-40.5957
 30
0.00000
  70
    32
  0
VERTEX
  8
COTE
  5
848
 10
15.2467
 20
-40.9620
 30
0.00000
  70
    32
  0
VERTEX
  8
COTE
  5
849
 10
15.1706
 20
-41.3283
 30
0.00000
  70
    32
  0
VERTEX
  8
COTE
  5
84A
 10
15.1011
 20
-41.6945
 30
0.00000
  70
    32
  0
VERTEX
  8
COTE
  5
84B
 10
15.0385
 20
-42.0606
 30
0.00000
  70
    32
  0
VERTEX
  8
COTE
  5
84C
 10
14.9831
 20
-42.4266
 30
0.00000
  70
    32
  0
VERTEX
  8
COTE
  5
84D
 10
14.9353
 20
-42.7924
 30
0.00000
  70
    32
  0
VERTEX
  8
COTE
  5
84E
 10
14.8954
 20
-43.1581
 30
0.00000
  70
    32
  0
VERTEX
  8
COTE
  5
84F
 10
14.8633
 20
-43.5237
 30
0.00000
  70
    32
  0
VERTEX
  8
COTE
  5
850
 10
14.8390
 20
-43.8892
 30
0.00000
  70
    32
  0
VERTEX
  8
COTE
  5
851
 10
14.8223
 20
-44.2544
 30
0.00000
  70
    32
  0
VERTEX
  8
COTE
  5
852
 10
14.8131
 20
-44.6195
 30
0.00000
  70
    32
  0
VERTEX
  8
COTE
  5
853
 10
14.8114
 20
-44.9844
 30
0.00000
  70
    32
  0
VERTEX
  8
COTE
  5
854
 10
14.8170
 20
-45.3490
 30
0.00000
  70
    32
  0
VERTEX
  8
COTE
  5
855
 10
14.8298
 20
-45.7135
 30
0.00000
  70
    32
  0
VERTEX
  8
COTE
  5
856
 10
14.8497
 20
-46.0777
 30
0.00000
  70
    32
  0
VERTEX
  8
COTE
  5
857
 10
14.8766
 20
-46.4417
 30
0.00000
  70
    32
  0
VERTEX
  8
COTE
  5
858
 10
14.9105
 20
-46.8054
 30
0.00000
  70
    32
  0
VERTEX
  8
COTE
  5
859
 10
14.9511
 20
-47.1688
 30
0.00000
  70
    32
  0
VERTEX
  8
COTE
  5
85A
 10
14.9984
 20
-47.5320
 30
0.00000
  70
    32
  0
VERTEX
  8
COTE
  5
85B
 10
15.0523
 20
-47.8949
 30
0.00000
  70
    32
  0
VERTEX
  8
COTE
  5
85C
 10
15.1127
 20
-48.2574
 30
0.00000
  70
    32
  0
VERTEX
  8
COTE
  5
85D
 10
15.1795
 20
-48.6196
 30
0.00000
  70
    32
  0
VERTEX
  8
COTE
  5
85E
 10
15.2526
 20
-48.9815
 30
0.00000
  70
    32
  0
VERTEX
  8
COTE
  5
85F
 10
15.3318
 20
-49.3431
 30
0.00000
  70
    32
  0
VERTEX
  8
COTE
  5
860
 10
15.4170
 20
-49.7042
 30
0.00000
  70
    32
  0
VERTEX
  8
COTE
  5
861
 10
15.5083
 20
-50.0650
 30
0.00000
  70
    32
  0
VERTEX
  8
COTE
  5
862
 10
15.6053
 20
-50.4255
 30
0.00000
  70
    32
  0
VERTEX
  8
COTE
  5
863
 10
15.7082
 20
-50.7855
 30
0.00000
  70
    32
  0
VERTEX
  8
COTE
  5
864
 10
15.8166
 20
-51.1451
 30
0.00000
  70
    32
  0
VERTEX
  8
COTE
  5
865
 10
15.9306
 20
-51.5042
 30
0.00000
  70
    32
  0
VERTEX
  8
COTE
  5
866
 10
16.0500
 20
-51.8630
 30
0.00000
  70
    32
  0
VERTEX
  8
COTE
  5
867
 10
16.1748
 20
-52.2212
 30
0.00000
  70
    32
  0
VERTEX
  8
COTE
  5
868
 10
16.3047
 20
-52.5790
 30
0.00000
  70
    32
  0
VERTEX
  8
COTE
  5
869
 10
16.4398
 20
-52.9364
 30
0.00000
  70
    32
  0
VERTEX
  8
COTE
  5
86A
 10
16.5799
 20
-53.2932
 30
0.00000
  70
    32
  0
VERTEX
  8
COTE
  5
86B
 10
16.7248
 20
-53.6495
 30
0.00000
  70
    32
  0
VERTEX
  8
COTE
  5
86C
 10
16.8746
 20
-54.0053
 30
0.00000
  70
    32
  0
VERTEX
  8
COTE
  5
86D
 10
17.0291
 20
-54.3606
 30
0.00000
  70
    32
  0
VERTEX
  8
COTE
  5
86E
 10
17.1881
 20
-54.7153
 30
0.00000
  70
    32
  0
VERTEX
  8
COTE
  5
86F
 10
17.3516
 20
-55.0695
 30
0.00000
  70
    32
  0
VERTEX
  8
COTE
  5
870
 10
17.5195
 20
-55.4231
 30
0.00000
  70
    32
  0
VERTEX
  8
COTE
  5
871
 10
17.6917
 20
-55.7761
 30
0.00000
  70
    32
  0
VERTEX
  8
COTE
  5
872
 10
17.8680
 20
-56.1285
 30
0.00000
  70
    32
  0
VERTEX
  8
COTE
  5
873
 10
18.0484
 20
-56.4803
 30
0.00000
  70
    32
  0
VERTEX
  8
COTE
  5
874
 10
18.2328
 20
-56.8315
 30
0.00000
  70
    32
  0
VERTEX
  8
COTE
  5
875
 10
18.4209
 20
-57.1821
 30
0.00000
  70
    32
  0
VERTEX
  8
COTE
  5
876
 10
18.6129
 20
-57.5320
 30
0.00000
  70
    32
  0
VERTEX
  8
COTE
  5
877
 10
18.8084
 20
-57.8812
 30
0.00000
  70
    32
  0
VERTEX
  8
COTE
  5
878
 10
19.0075
 20
-58.2298
 30
0.00000
  70
    32
  0
VERTEX
  8
COTE
  5
879
 10
19.2100
 20
-58.5776
 30
0.00000
  70
    32
  0
VERTEX
  8
COTE
  5
87A
 10
19.4159
 20
-58.9248
 30
0.00000
  70
    32
  0
VERTEX
  8
COTE
  5
87B
 10
19.6249
 20
-59.2713
 30
0.00000
  70
    32
  0
VERTEX
  8
COTE
  5
87C
 10
19.8371
 20
-59.6170
 30
0.00000
  70
    32
  0
VERTEX
  8
COTE
  5
87D
 10
20.0522
 20
-59.9620
 30
0.00000
  70
    32
  0
VERTEX
  8
COTE
  5
87E
 10
20.2703
 20
-60.3062
 30
0.00000
  70
    32
  0
VERTEX
  8
COTE
  5
87F
 10
20.4912
 20
-60.6497
 30
0.00000
  70
    32
  0
VERTEX
  8
COTE
  5
880
 10
20.7147
 20
-60.9924
 30
0.00000
  70
    32
  0
VERTEX
  8
COTE
  5
881
 10
20.9408
 20
-61.3343
 30
0.00000
  70
    32
  0
VERTEX
  8
COTE
  5
882
 10
21.1694
 20
-61.6754
 30
0.00000
  70
    32
  0
VERTEX
  8
COTE
  5
883
 10
21.4004
 20
-62.0157
 30
0.00000
  70
    32
  0
VERTEX
  8
COTE
  5
884
 10
21.6336
 20
-62.3551
 30
0.00000
  70
    32
  0
VERTEX
  8
COTE
  5
885
 10
21.8690
 20
-62.6937
 30
0.00000
  70
    32
  0
VERTEX
  8
COTE
  5
886
 10
22.1065
 20
-63.0315
 30
0.00000
  70
    32
  0
VERTEX
  8
COTE
  5
887
 10
22.3459
 20
-63.3684
 30
0.00000
  70
    32
  0
VERTEX
  8
COTE
  5
888
 10
22.5871
 20
-63.7044
 30
0.00000
  70
    32
  0
VERTEX
  8
COTE
  5
889
 10
22.8301
 20
-64.0395
 30
0.00000
  70
    32
  0
VERTEX
  8
COTE
  5
88A
 10
23.0747
 20
-64.3736
 30
0.00000
  70
    32
  0
VERTEX
  8
COTE
  5
88B
 10
23.3208
 20
-64.7069
 30
0.00000
  70
    32
  0
VERTEX
  8
COTE
  5
88C
 10
23.5684
 20
-65.0392
 30
0.00000
  70
    32
  0
VERTEX
  8
COTE
  5
88D
 10
23.8173
 20
-65.3706
 30
0.00000
  70
    32
  0
VERTEX
  8
COTE
  5
88E
 10
24.0674
 20
-65.7010
 30
0.00000
  70
    32
  0
VERTEX
  8
COTE
  5
88F
 10
24.3186
 20
-66.0305
 30
0.00000
  70
    32
  0
VERTEX
  8
COTE
  5
890
 10
24.5707
 20
-66.3590
 30
0.00000
  70
    32
  0
VERTEX
  8
COTE
  5
891
 10
24.8239
 20
-66.6864
 30
0.00000
  70
    32
  0
VERTEX
  8
COTE
  5
892
 10
25.0780
 20
-67.0126
 30
0.00000
  70
    32
  0
VERTEX
  8
COTE
  5
893
 10
25.3331
 20
-67.3374
 30
0.00000
  70
    32
  0
VERTEX
  8
COTE
  5
894
 10
25.5894
 20
-67.6606
 30
0.00000
  70
    32
  0
VERTEX
  8
COTE
  5
895
 10
25.8467
 20
-67.9820
 30
0.00000
  70
    32
  0
VERTEX
  8
COTE
  5
896
 10
26.1053
 20
-68.3015
 30
0.00000
  70
    32
  0
VERTEX
  8
COTE
  5
897
 10
26.3651
 20
-68.6188
 30
0.00000
  70
    32
  0
VERTEX
  8
COTE
  5
898
 10
26.6262
 20
-68.9338
 30
0.00000
  70
    32
  0
VERTEX
  8
COTE
  5
899
 10
26.8887
 20
-69.2462
 30
0.00000
  70
    32
  0
VERTEX
  8
COTE
  5
89A
 10
27.1526
 20
-69.5560
 30
0.00000
  70
    32
  0
VERTEX
  8
COTE
  5
89B
 10
27.4180
 20
-69.8628
 30
0.00000
  70
    32
  0
VERTEX
  8
COTE
  5
89C
 10
27.6849
 20
-70.1666
 30
0.00000
  70
    32
  0
VERTEX
  8
COTE
  5
89D
 10
27.9533
 20
-70.4671
 30
0.00000
  70
    32
  0
VERTEX
  8
COTE
  5
89E
 10
28.2234
 20
-70.7641
 30
0.00000
  70
    32
  0
VERTEX
  8
COTE
  5
89F
 10
28.4952
 20
-71.0575
 30
0.00000
  70
    32
  0
VERTEX
  8
COTE
  5
8A0
 10
28.7687
 20
-71.3471
 30
0.00000
  70
    32
  0
VERTEX
  8
COTE
  5
8A1
 10
29.0441
 20
-71.6326
 30
0.00000
  70
    32
  0
VERTEX
  8
COTE
  5
8A2
 10
29.3213
 20
-71.9140
 30
0.00000
  70
    32
  0
VERTEX
  8
COTE
  5
8A3
 10
29.6004
 20
-72.1909
 30
0.00000
  70
    32
  0
VERTEX
  8
COTE
  5
8A4
 10
29.8814
 20
-72.4633
 30
0.00000
  70
    32
  0
VERTEX
  8
COTE
  5
8A5
 10
30.1645
 20
-72.7309
 30
0.00000
  70
    32
  0
VERTEX
  8
COTE
  5
8A6
 10
30.4496
 20
-72.9935
 30
0.00000
  70
    32
  0
VERTEX
  8
COTE
  5
8A7
 10
30.7369
 20
-73.2510
 30
0.00000
  70
    32
  0
VERTEX
  8
COTE
  5
8A8
 10
31.0263
 20
-73.5032
 30
0.00000
  70
    32
  0
VERTEX
  8
COTE
  5
8A9
 10
31.3180
 20
-73.7499
 30
0.00000
  70
    32
  0
VERTEX
  8
COTE
  5
8AA
 10
31.6120
 20
-73.9909
 30
0.00000
  70
    32
  0
VERTEX
  8
COTE
  5
8AB
 10
31.9083
 20
-74.2259
 30
0.00000
  70
    32
  0
VERTEX
  8
COTE
  5
8AC
 10
32.2071
 20
-74.4550
 30
0.00000
  70
    32
  0
VERTEX
  8
COTE
  5
8AD
 10
32.5082
 20
-74.6777
 30
0.00000
  70
    32
  0
VERTEX
  8
COTE
  5
8AE
 10
32.8119
 20
-74.8940
 30
0.00000
  70
    32
  0
VERTEX
  8
COTE
  5
8AF
 10
33.1182
 20
-75.1037
 30
0.00000
  70
    32
  0
VERTEX
  8
COTE
  5
8B0
 10
33.4270
 20
-75.3065
 30
0.00000
  70
    32
  0
VERTEX
  8
COTE
  5
8B1
 10
33.7386
 20
-75.5024
 30
0.00000
  70
    32
  0
VERTEX
  8
COTE
  5
8B2
 10
34.0529
 20
-75.6910
 30
0.00000
  70
    32
  0
VERTEX
  8
COTE
  5
8B3
 10
34.3699
 20
-75.8723
 30
0.00000
  70
    32
  0
VERTEX
  8
COTE
  5
8B4
 10
34.6898
 20
-76.0460
 30
0.00000
  70
    32
  0
VERTEX
  8
COTE
  5
8B5
 10
35.0126
 20
-76.2119
 30
0.00000
  70
    32
  0
VERTEX
  8
COTE
  5
8B6
 10
35.3384
 20
-76.3699
 30
0.00000
  70
    32
  0
VERTEX
  8
COTE
  5
8B7
 10
35.6671
 20
-76.5198
 30
0.00000
  70
    32
  0
VERTEX
  8
COTE
  5
8B8
 10
35.9989
 20
-76.6614
 30
0.00000
  70
    32
  0
VERTEX
  8
COTE
  5
8B9
 10
36.3338
 20
-76.7944
 30
0.00000
  70
    32
  0
VERTEX
  8
COTE
  5
8BA
 10
36.6719
 20
-76.9188
 30
0.00000
  70
    32
  0
VERTEX
  8
COTE
  5
8BB
 10
37.0132
 20
-77.0343
 30
0.00000
  70
    32
  0
VERTEX
  8
COTE
  5
8BC
 10
37.3578
 20
-77.1407
 30
0.00000
  70
    32
  0
VERTEX
  8
COTE
  5
8BD
 10
37.7057
 20
-77.2379
 30
0.00000
  70
    32
  0
VERTEX
  8
COTE
  5
8BE
 10
38.0568
 20
-77.3259
 30
0.00000
  70
    32
  0
VERTEX
  8
COTE
  5
8BF
 10
38.4109
 20
-77.4047
 30
0.00000
  70
    32
  0
VERTEX
  8
COTE
  5
8C0
 10
38.7679
 20
-77.4743
 30
0.00000
  70
    32
  0
VERTEX
  8
COTE
  5
8C1
 10
39.1276
 20
-77.5347
 30
0.00000
  70
    32
  0
VERTEX
  8
COTE
  5
8C2
 10
39.4899
 20
-77.5861
 30
0.00000
  70
    32
  0
VERTEX
  8
COTE
  5
8C3
 10
39.8546
 20
-77.6285
 30
0.00000
  70
    32
  0
VERTEX
  8
COTE
  5
8C4
 10
40.2215
 20
-77.6619
 30
0.00000
  70
    32
  0
VERTEX
  8
COTE
  5
8C5
 10
40.5905
 20
-77.6863
 30
0.00000
  70
    32
  0
VERTEX
  8
COTE
  5
8C6
 10
40.9613
 20
-77.7018
 30
0.00000
  70
    32
  0
VERTEX
  8
COTE
  5
8C7
 10
41.3340
 20
-77.7084
 30
0.00000
  70
    32
  0
VERTEX
  8
COTE
  5
8C8
 10
41.7082
 20
-77.7062
 30
0.00000
  70
    32
  0
VERTEX
  8
COTE
  5
8C9
 10
42.0838
 20
-77.6952
 30
0.00000
  70
    32
  0
VERTEX
  8
COTE
  5
8CA
 10
42.4607
 20
-77.6754
 30
0.00000
  70
    32
  0
VERTEX
  8
COTE
  5
8CB
 10
42.8386
 20
-77.6469
 30
0.00000
  70
    32
  0
VERTEX
  8
COTE
  5
8CC
 10
43.2175
 20
-77.6098
 30
0.00000
  70
    32
  0
VERTEX
  8
COTE
  5
8CD
 10
43.5972
 20
-77.5640
 30
0.00000
  70
    32
  0
VERTEX
  8
COTE
  5
8CE
 10
43.9775
 20
-77.5097
 30
0.00000
  70
    32
  0
VERTEX
  8
COTE
  5
8CF
 10
44.3582
 20
-77.4468
 30
0.00000
  70
    32
  0
VERTEX
  8
COTE
  5
8D0
 10
44.7393
 20
-77.3753
 30
0.00000
  70
    32
  0
VERTEX
  8
COTE
  5
8D1
 10
45.1204
 20
-77.2955
 30
0.00000
  70
    32
  0
VERTEX
  8
COTE
  5
8D2
 10
45.5015
 20
-77.2072
 30
0.00000
  70
    32
  0
VERTEX
  8
COTE
  5
8D3
 10
45.8824
 20
-77.1105
 30
0.00000
  70
    32
  0
VERTEX
  8
COTE
  5
8D4
 10
46.2629
 20
-77.0055
 30
0.00000
  70
    32
  0
VERTEX
  8
COTE
  5
8D5
 10
46.6430
 20
-76.8921
 30
0.00000
  70
    32
  0
VERTEX
  8
COTE
  5
8D6
 10
47.0223
 20
-76.7705
 30
0.00000
  70
    32
  0
VERTEX
  8
COTE
  5
8D7
 10
47.4008
 20
-76.6407
 30
0.00000
  70
    32
  0
VERTEX
  8
COTE
  5
8D8
 10
47.7782
 20
-76.5027
 30
0.00000
  70
    32
  0
VERTEX
  8
COTE
  5
8D9
 10
48.1545
 20
-76.3566
 30
0.00000
  70
    32
  0
VERTEX
  8
COTE
  5
8DA
 10
48.5295
 20
-76.2024
 30
0.00000
  70
    32
  0
VERTEX
  8
COTE
  5
8DB
 10
48.9029
 20
-76.0401
 30
0.00000
  70
    32
  0
VERTEX
  8
COTE
  5
8DC
 10
49.2747
 20
-75.8698
 30
0.00000
  70
    32
  0
VERTEX
  8
COTE
  5
8DD
 10
49.6447
 20
-75.6916
 30
0.00000
  70
    32
  0
VERTEX
  8
COTE
  5
8DE
 10
50.0127
 20
-75.5054
 30
0.00000
  70
    32
  0
VERTEX
  8
COTE
  5
8DF
 10
50.3785
 20
-75.3113
 30
0.00000
  70
    32
  0
VERTEX
  8
COTE
  5
8E0
 10
50.7420
 20
-75.1093
 30
0.00000
  70
    32
  0
VERTEX
  8
COTE
  5
8E1
 10
51.1031
 20
-74.8996
 30
0.00000
  70
    32
  0
VERTEX
  8
COTE
  5
8E2
 10
51.4615
 20
-74.6821
 30
0.00000
  70
    32
  0
VERTEX
  8
COTE
  5
8E3
 10
51.8172
 20
-74.4568
 30
0.00000
  70
    32
  0
VERTEX
  8
COTE
  5
8E4
 10
52.1699
 20
-74.2239
 30
0.00000
  70
    32
  0
VERTEX
  8
COTE
  5
8E5
 10
52.5194
 20
-73.9833
 30
0.00000
  70
    32
  0
VERTEX
  8
COTE
  5
8E6
 10
52.8657
 20
-73.7351
 30
0.00000
  70
    32
  0
VERTEX
  8
COTE
  5
8E7
 10
53.2085
 20
-73.4793
 30
0.00000
  70
    32
  0
VERTEX
  8
COTE
  5
8E8
 10
53.5478
 20
-73.2161
 30
0.00000
  70
    32
  0
VERTEX
  8
COTE
  5
8E9
 10
53.8832
 20
-72.9453
 30
0.00000
  70
    32
  0
VERTEX
  8
COTE
  5
8EA
 10
54.2148
 20
-72.6671
 30
0.00000
  70
    32
  0
VERTEX
  8
COTE
  5
8EB
 10
54.5422
 20
-72.3815
 30
0.00000
  70
    32
  0
VERTEX
  8
COTE
  5
8EC
 10
54.8654
 20
-72.0885
 30
0.00000
  70
    32
  0
VERTEX
  8
COTE
  5
8ED
 10
55.1842
 20
-71.7882
 30
0.00000
  70
    32
  0
VERTEX
  8
COTE
  5
8EE
 10
55.4984
 20
-71.4808
 30
0.00000
  70
    32
  0
VERTEX
  8
COTE
  5
8EF
 10
55.8084
 20
-71.1669
 30
0.00000
  70
    32
  0
VERTEX
  8
COTE
  5
8F0
 10
56.1142
 20
-70.8469
 30
0.00000
  70
    32
  0
VERTEX
  8
COTE
  5
8F1
 10
56.4161
 20
-70.5217
 30
0.00000
  70
    32
  0
VERTEX
  8
COTE
  5
8F2
 10
56.7142
 20
-70.1917
 30
0.00000
  70
    32
  0
VERTEX
  8
COTE
  5
8F3
 10
57.0088
 20
-69.8577
 30
0.00000
  70
    32
  0
VERTEX
  8
COTE
  5
8F4
 10
57.3000
 20
-69.5202
 30
0.00000
  70
    32
  0
VERTEX
  8
COTE
  5
8F5
 10
57.5880
 20
-69.1798
 30
0.00000
  70
    32
  0
VERTEX
  8
COTE
  5
8F6
 10
57.8730
 20
-68.8372
 30
0.00000
  70
    32
  0
VERTEX
  8
COTE
  5
8F7
 10
58.1553
 20
-68.4931
 30
0.00000
  70
    32
  0
VERTEX
  8
COTE
  5
8F8
 10
58.4349
 20
-68.1479
 30
0.00000
  70
    32
  0
VERTEX
  8
COTE
  5
8F9
 10
58.7121
 20
-67.8023
 30
0.00000
  70
    32
  0
VERTEX
  8
COTE
  5
8FA
 10
58.9871
 20
-67.4570
 30
0.00000
  70
    32
  0
VERTEX
  8
COTE
  5
8FB
 10
59.2601
 20
-67.1126
 30
0.00000
  70
    32
  0
VERTEX
  8
COTE
  5
8FC
 10
59.5312
 20
-66.7696
 30
0.00000
  70
    32
  0
VERTEX
  8
COTE
  5
8FD
 10
59.8007
 20
-66.4288
 30
0.00000
  70
    32
  0
VERTEX
  8
COTE
  5
8FE
 10
60.0688
 20
-66.0907
 30
0.00000
  70
    32
  0
VERTEX
  8
COTE
  5
8FF
 10
60.3356
 20
-65.7560
 30
0.00000
  70
    32
  0
VERTEX
  8
COTE
  5
900
 10
60.6013
 20
-65.4252
 30
0.00000
  70
    32
  0
VERTEX
  8
COTE
  5
901
 10
60.8661
 20
-65.0990
 30
0.00000
  70
    32
  0
VERTEX
  8
COTE
  5
902
 10
61.1303
 20
-64.7780
 30
0.00000
  70
    32
  0
VERTEX
  8
COTE
  5
903
 10
61.3939
 20
-64.4628
 30
0.00000
  70
    32
  0
VERTEX
  8
COTE
  5
904
 10
61.6573
 20
-64.1541
 30
0.00000
  70
    32
  0
VERTEX
  8
COTE
  5
905
 10
61.9206
 20
-63.8524
 30
0.00000
  70
    32
  0
VERTEX
  8
COTE
  5
906
 10
62.1839
 20
-63.5585
 30
0.00000
  70
    32
  0
VERTEX
  8
COTE
  5
907
 10
62.4475
 20
-63.2728
 30
0.00000
  70
    32
  0
VERTEX
  8
COTE
  5
908
 10
62.7116
 20
-62.9961
 30
0.00000
  70
    32
  0
VERTEX
  8
COTE
  5
909
 10
62.9764
 20
-62.7289
 30
0.00000
  70
    32
  0
VERTEX
  8
COTE
  5
90A
 10
63.2419
 20
-62.4718
 30
0.00000
  70
    32
  0
VERTEX
  8
COTE
  5
90B
 10
63.5086
 20
-62.2256
 30
0.00000
  70
    32
  0
VERTEX
  8
COTE
  5
90C
 10
63.7765
 20
-61.9907
 30
0.00000
  70
    32
  0
VERTEX
  8
COTE
  5
90D
 10
64.0458
 20
-61.7679
 30
0.00000
  70
    32
  0
VERTEX
  8
COTE
  5
90E
 10
64.3167
 20
-61.5577
 30
0.00000
  70
    32
  0
VERTEX
  8
COTE
  5
90F
 10
64.5894
 20
-61.3608
 30
0.00000
  70
    32
  0
VERTEX
  8
COTE
  5
910
 10
64.8641
 20
-61.1778
 30
0.00000
  70
    32
  0
VERTEX
  8
COTE
  5
911
 10
65.1410
 20
-61.0093
 30
0.00000
  70
    32
  0
VERTEX
  8
COTE
  5
912
 10
65.4203
 20
-60.8558
 30
0.00000
  70
    32
  0
VERTEX
  8
COTE
  5
913
 10
65.7022
 20
-60.7182
 30
0.00000
  70
    32
  0
VERTEX
  8
COTE
  5
914
 10
65.9869
 20
-60.5969
 30
0.00000
  70
    32
  0
VERTEX
  8
COTE
  5
915
 10
66.2745
 20
-60.4925
 30
0.00000
  70
    32
  0
VERTEX
  8
COTE
  5
916
 10
66.5653
 20
-60.4058
 30
0.00000
  70
    32
  0
VERTEX
  8
COTE
  5
917
 10
66.8594
 20
-60.3373
 30
0.00000
  70
    32
  0
VERTEX
  8
COTE
  5
918
 10
67.1570
 20
-60.2876
 30
0.00000
  70
    32
  0
VERTEX
  8
COTE
  5
919
 10
67.4584
 20
-60.2574
 30
0.00000
  70
    32
  0
VERTEX
  8
COTE
  5
91A
 10
67.7637
 20
-60.2472
 30
0.00000
  70
    32
  0
VERTEX
  8
COTE
  5
91B
 10
68.0730
 20
-60.2574
 30
0.00000
  70
    32
  0
VERTEX
  8
COTE
  5
91C
 10
68.3863
 20
-60.2871
 30
0.00000
  70
    32
  0
VERTEX
  8
COTE
  5
91D
 10
68.7033
 20
-60.3354
 30
0.00000
  70
    32
  0
VERTEX
  8
COTE
  5
91E
 10
69.0240
 20
-60.4013
 30
0.00000
  70
    32
  0
VERTEX
  8
COTE
  5
91F
 10
69.3481
 20
-60.4840
 30
0.00000
  70
    32
  0
VERTEX
  8
COTE
  5
920
 10
69.6756
 20
-60.5823
 30
0.00000
  70
    32
  0
VERTEX
  8
COTE
  5
921
 10
70.0063
 20
-60.6955
 30
0.00000
  70
    32
  0
VERTEX
  8
COTE
  5
922
 10
70.3400
 20
-60.8226
 30
0.00000
  70
    32
  0
VERTEX
  8
COTE
  5
923
 10
70.6767
 20
-60.9625
 30
0.00000
  70
    32
  0
VERTEX
  8
COTE
  5
924
 10
71.0161
 20
-61.1144
 30
0.00000
  70
    32
  0
VERTEX
  8
COTE
  5
925
 10
71.3581
 20
-61.2773
 30
0.00000
  70
    32
  0
VERTEX
  8
COTE
  5
926
 10
71.7027
 20
-61.4504
 30
0.00000
  70
    32
  0
VERTEX
  8
COTE
  5
927
 10
72.0495
 20
-61.6325
 30
0.00000
  70
    32
  0
VERTEX
  8
COTE
  5
928
 10
72.3986
 20
-61.8228
 30
0.00000
  70
    32
  0
VERTEX
  8
COTE
  5
929
 10
72.7497
 20
-62.0204
 30
0.00000
  70
    32
  0
VERTEX
  8
COTE
  5
92A
 10
73.1027
 20
-62.2242
 30
0.00000
  70
    32
  0
VERTEX
  8
COTE
  5
92B
 10
73.4574
 20
-62.4334
 30
0.00000
  70
    32
  0
VERTEX
  8
COTE
  5
92C
 10
73.8138
 20
-62.6470
 30
0.00000
  70
    32
  0
VERTEX
  8
COTE
  5
92D
 10
74.1716
 20
-62.8640
 30
0.00000
  70
    32
  0
VERTEX
  8
COTE
  5
92E
 10
74.5308
 20
-63.0836
 30
0.00000
  70
    32
  0
VERTEX
  8
COTE
  5
92F
 10
74.8911
 20
-63.3047
 30
0.00000
  70
    32
  0
VERTEX
  8
COTE
  5
930
 10
75.2525
 20
-63.5264
 30
0.00000
  70
    32
  0
VERTEX
  8
COTE
  5
931
 10
75.6148
 20
-63.7478
 30
0.00000
  70
    32
  0
VERTEX
  8
COTE
  5
932
 10
75.9778
 20
-63.9679
 30
0.00000
  70
    32
  0
VERTEX
  8
COTE
  5
933
 10
76.3414
 20
-64.1858
 30
0.00000
  70
    32
  0
VERTEX
  8
COTE
  5
934
 10
76.7055
 20
-64.4005
 30
0.00000
  70
    32
  0
VERTEX
  8
COTE
  5
935
 10
77.0698
 20
-64.6111
 30
0.00000
  70
    32
  0
VERTEX
  8
COTE
  5
936
 10
77.4344
 20
-64.8167
 30
0.00000
  70
    32
  0
VERTEX
  8
COTE
  5
937
 10
77.7990
 20
-65.0162
 30
0.00000
  70
    32
  0
VERTEX
  8
COTE
  5
938
 10
78.1635
 20
-65.2088
 30
0.00000
  70
    32
  0
VERTEX
  8
COTE
  5
939
 10
78.5277
 20
-65.3935
 30
0.00000
  70
    32
  0
VERTEX
  8
COTE
  5
93A
 10
78.8915
 20
-65.5694
 30
0.00000
  70
    32
  0
VERTEX
  8
COTE
  5
93B
 10
79.2547
 20
-65.7354
 30
0.00000
  70
    32
  0
VERTEX
  8
COTE
  5
93C
 10
79.6173
 20
-65.8908
 30
0.00000
  70
    32
  0
VERTEX
  8
COTE
  5
93D
 10
79.9790
 20
-66.0344
 30
0.00000
  70
    32
  0
VERTEX
  8
COTE
  5
93E
 10
80.3397
 20
-66.1654
 30
0.00000
  70
    32
  0
VERTEX
  8
COTE
  5
93F
 10
80.6993
 20
-66.2829
 30
0.00000
  70
    32
  0
VERTEX
  8
COTE
  5
940
 10
81.0577
 20
-66.3858
 30
0.00000
  70
    32
  0
VERTEX
  8
COTE
  5
941
 10
81.4146
 20
-66.4733
 30
0.00000
  70
    32
  0
VERTEX
  8
COTE
  5
942
 10
81.7699
 20
-66.5443
 30
0.00000
  70
    32
  0
VERTEX
  8
COTE
  5
943
 10
82.1236
 20
-66.5980
 30
0.00000
  70
    32
  0
VERTEX
  8
COTE
  5
944
 10
82.4754
 20
-66.6334
 30
0.00000
  70
    32
  0
VERTEX
  8
COTE
  5
945
 10
82.8252
 20
-66.6496
 30
0.00000
  70
    32
  0
VERTEX
  8
COTE
  5
946
 10
83.1729
 20
-66.6457
 30
0.00000
  70
    32
  0
VERTEX
  8
COTE
  5
947
 10
83.5184
 20
-66.6220
 30
0.00000
  70
    32
  0
VERTEX
  8
COTE
  5
948
 10
83.8618
 20
-66.5791
 30
0.00000
  70
    32
  0
VERTEX
  8
COTE
  5
949
 10
84.2031
 20
-66.5177
 30
0.00000
  70
    32
  0
VERTEX
  8
COTE
  5
94A
 10
84.5422
 20
-66.4385
 30
0.00000
  70
    32
  0
VERTEX
  8
COTE
  5
94B
 10
84.8792
 20
-66.3422
 30
0.00000
  70
    32
  0
VERTEX
  8
COTE
  5
94C
 10
85.2141
 20
-66.2292
 30
0.00000
  70
    32
  0
VERTEX
  8
COTE
  5
94D
 10
85.5470
 20
-66.1004
 30
0.00000
  70
    32
  0
VERTEX
  8
COTE
  5
94E
 10
85.8777
 20
-65.9564
 30
0.00000
  70
    32
  0
VERTEX
  8
COTE
  5
94F
 10
86.2064
 20
-65.7978
 30
0.00000
  70
    32
  0
VERTEX
  8
COTE
  5
950
 10
86.5330
 20
-65.6254
 30
0.00000
  70
    32
  0
VERTEX
  8
COTE
  5
951
 10
86.8575
 20
-65.4396
 30
0.00000
  70
    32
  0
VERTEX
  8
COTE
  5
952
 10
87.1800
 20
-65.2413
 30
0.00000
  70
    32
  0
VERTEX
  8
COTE
  5
953
 10
87.5005
 20
-65.0310
 30
0.00000
  70
    32
  0
VERTEX
  8
COTE
  5
954
 10
87.8189
 20
-64.8094
 30
0.00000
  70
    32
  0
VERTEX
  8
COTE
  5
955
 10
88.1353
 20
-64.5773
 30
0.00000
  70
    32
  0
VERTEX
  8
COTE
  5
956
 10
88.4498
 20
-64.3351
 30
0.00000
  70
    32
  0
VERTEX
  8
COTE
  5
957
 10
88.7622
 20
-64.0836
 30
0.00000
  70
    32
  0
VERTEX
  8
COTE
  5
958
 10
89.0726
 20
-63.8235
 30
0.00000
  70
    32
  0
VERTEX
  8
COTE
  5
959
 10
89.3811
 20
-63.5553
 30
0.00000
  70
    32
  0
VERTEX
  8
COTE
  5
95A
 10
89.6876
 20
-63.2798
 30
0.00000
  70
    32
  0
VERTEX
  8
COTE
  5
95B
 10
89.9921
 20
-62.9977
 30
0.00000
  70
    32
  0
VERTEX
  8
COTE
  5
95C
 10
90.2948
 20
-62.7094
 30
0.00000
  70
    32
  0
VERTEX
  8
COTE
  5
95D
 10
90.5954
 20
-62.4158
 30
0.00000
  70
    32
  0
VERTEX
  8
COTE
  5
95E
 10
90.8942
 20
-62.1175
 30
0.00000
  70
    32
  0
VERTEX
  8
COTE
  5
95F
 10
91.1910
 20
-61.8151
 30
0.00000
  70
    32
  0
VERTEX
  8
COTE
  5
960
 10
91.4859
 20
-61.5093
 30
0.00000
  70
    32
  0
VERTEX
  8
COTE
  5
961
 10
91.7789
 20
-61.2007
 30
0.00000
  70
    32
  0
VERTEX
  8
COTE
  5
962
 10
92.0701
 20
-60.8900
 30
0.00000
  70
    32
  0
VERTEX
  8
COTE
  5
963
 10
92.3594
 20
-60.5779
 30
0.00000
  70
    32
  0
VERTEX
  8
COTE
  5
964
 10
92.6468
 20
-60.2650
 30
0.00000
  70
    32
  0
VERTEX
  8
COTE
  5
965
 10
92.9323
 20
-59.9520
 30
0.00000
  70
    32
  0
VERTEX
  8
COTE
  5
966
 10
93.2160
 20
-59.6395
 30
0.00000
  70
    32
  0
VERTEX
  8
COTE
  5
967
 10
93.4978
 20
-59.3279
 30
0.00000
  70
    32
  0
VERTEX
  8
COTE
  5
968
 10
93.7778
 20
-59.0173
 30
0.00000
  70
    32
  0
VERTEX
  8
COTE
  5
969
 10
94.0558
 20
-58.7076
 30
0.00000
  70
    32
  0
VERTEX
  8
COTE
  5
96A
 10
94.3317
 20
-58.3990
 30
0.00000
  70
    32
  0
VERTEX
  8
COTE
  5
96B
 10
94.6056
 20
-58.0912
 30
0.00000
  70
    32
  0
VERTEX
  8
COTE
  5
96C
 10
94.8774
 20
-57.7844
 30
0.00000
  70
    32
  0
VERTEX
  8
COTE
  5
96D
 10
95.1469
 20
-57.4785
 30
0.00000
  70
    32
  0
VERTEX
  8
COTE
  5
96E
 10
95.4143
 20
-57.1735
 30
0.00000
  70
    32
  0
VERTEX
  8
COTE
  5
96F
 10
95.6793
 20
-56.8694
 30
0.00000
  70
    32
  0
VERTEX
  8
COTE
  5
970
 10
95.9421
 20
-56.5663
 30
0.00000
  70
    32
  0
VERTEX
  8
COTE
  5
971
 10
96.2024
 20
-56.2640
 30
0.00000
  70
    32
  0
VERTEX
  8
COTE
  5
972
 10
96.4603
 20
-55.9625
 30
0.00000
  70
    32
  0
VERTEX
  8
COTE
  5
973
 10
96.7156
 20
-55.6620
 30
0.00000
  70
    32
  0
VERTEX
  8
COTE
  5
974
 10
96.9684
 20
-55.3623
 30
0.00000
  70
    32
  0
VERTEX
  8
COTE
  5
975
 10
97.2186
 20
-55.0634
 30
0.00000
  70
    32
  0
VERTEX
  8
COTE
  5
976
 10
97.4662
 20
-54.7653
 30
0.00000
  70
    32
  0
VERTEX
  8
COTE
  5
977
 10
97.7110
 20
-54.4681
 30
0.00000
  70
    32
  0
VERTEX
  8
COTE
  5
978
 10
97.9530
 20
-54.1717
 30
0.00000
  70
    32
  0
VERTEX
  8
COTE
  5
979
 10
98.1922
 20
-53.8761
 30
0.00000
  70
    32
  0
VERTEX
  8
COTE
  5
97A
 10
98.4285
 20
-53.5813
 30
0.00000
  70
    32
  0
VERTEX
  8
COTE
  5
97B
 10
98.6619
 20
-53.2873
 30
0.00000
  70
    32
  0
VERTEX
  8
COTE
  5
97C
 10
98.8923
 20
-52.9940
 30
0.00000
  70
    32
  0
VERTEX
  8
COTE
  5
97D
 10
99.1197
 20
-52.7015
 30
0.00000
  70
    32
  0
VERTEX
  8
COTE
  5
97E
 10
99.3439
 20
-52.4098
 30
0.00000
  70
    32
  0
VERTEX
  8
COTE
  5
97F
 10
99.5650
 20
-52.1188
 30
0.00000
  70
    32
  0
VERTEX
  8
COTE
  5
980
 10
99.7829
 20
-51.8285
 30
0.00000
  70
    32
  0
VERTEX
  8
COTE
  5
981
 10
99.9975
 20
-51.5390
 30
0.00000
  70
    32
  0
VERTEX
  8
COTE
  5
982
 10
100.209
 20
-51.2501
 30
0.00000
  70
    32
  0
VERTEX
  8
COTE
  5
983
 10
100.417
 20
-50.9620
 30
0.00000
  70
    32
  0
VERTEX
  8
COTE
  5
984
 10
100.621
 20
-50.6745
 30
0.00000
  70
    32
  0
VERTEX
  8
COTE
  5
985
 10
100.822
 20
-50.3878
 30
0.00000
  70
    32
  0
VERTEX
  8
COTE
  5
986
 10
101.020
 20
-50.1017
 30
0.00000
  70
    32
  0
VERTEX
  8
COTE
  5
987
 10
101.214
 20
-49.8163
 30
0.00000
  70
    32
  0
VERTEX
  8
COTE
  5
988
 10
101.404
 20
-49.5315
 30
0.00000
  70
    32
  0
VERTEX
  8
COTE
  5
989
 10
101.591
 20
-49.2473
 30
0.00000
  70
    32
  0
VERTEX
  8
COTE
  5
98A
 10
101.773
 20
-48.9638
 30
0.00000
  70
    32
  0
VERTEX
  8
COTE
  5
98B
 10
101.952
 20
-48.6809
 30
0.00000
  70
    32
  0
VERTEX
  8
COTE
  5
98C
 10
102.128
 20
-48.3983
 30
0.00000
  70
    32
  0
VERTEX
  8
COTE
  5
98D
 10
102.300
 20
-48.1156
 30
0.00000
  70
    32
  0
VERTEX
  8
COTE
  5
98E
 10
102.470
 20
-47.8324
 30
0.00000
  70
    32
  0
VERTEX
  8
COTE
  5
98F
 10
102.638
 20
-47.5483
 30
0.00000
  70
    32
  0
VERTEX
  8
COTE
  5
990
 10
102.804
 20
-47.2628
 30
0.00000
  70
    32
  0
VERTEX
  8
COTE
  5
991
 10
102.969
 20
-46.9757
 30
0.00000
  70
    32
  0
VERTEX
  8
COTE
  5
992
 10
103.133
 20
-46.6863
 30
0.00000
  70
    32
  0
VERTEX
  8
COTE
  5
993
 10
103.296
 20
-46.3944
 30
0.00000
  70
    32
  0
VERTEX
  8
COTE
  5
994
 10
103.460
 20
-46.0996
 30
0.00000
  70
    32
  0
VERTEX
  8
COTE
  5
995
 10
103.623
 20
-45.8014
 30
0.00000
  70
    32
  0
VERTEX
  8
COTE
  5
996
 10
103.788
 20
-45.4993
 30
0.00000
  70
    32
  0
VERTEX
  8
COTE
  5
997
 10
103.955
 20
-45.1931
 30
0.00000
  70
    32
  0
VERTEX
  8
COTE
  5
998
 10
104.123
 20
-44.8823
 30
0.00000
  70
    32
  0
VERTEX
  8
COTE
  5
999
 10
104.293
 20
-44.5665
 30
0.00000
  70
    32
  0
VERTEX
  8
COTE
  5
99A
 10
104.466
 20
-44.2452
 30
0.00000
  70
    32
  0
VERTEX
  8
COTE
  5
99B
 10
104.642
 20
-43.9181
 30
0.00000
  70
    32
  0
VERTEX
  8
COTE
  5
99C
 10
104.821
 20
-43.5847
 30
0.00000
  70
    32
  0
VERTEX
  8
COTE
  5
99D
 10
105.005
 20
-43.2447
 30
0.00000
  70
    32
  0
VERTEX
  8
COTE
  5
99E
 10
105.193
 20
-42.8977
 30
0.00000
  70
    32
  0
VERTEX
  8
COTE
  5
99F
 10
105.386
 20
-42.5431
 30
0.00000
  70
    32
  0
VERTEX
  8
COTE
  5
9A0
 10
105.584
 20
-42.1806
 30
0.00000
  70
    32
  0
VERTEX
  8
COTE
  5
9A1
 10
105.788
 20
-41.8099
 30
0.00000
  70
    32
  0
VERTEX
  8
COTE
  5
9A2
 10
105.998
 20
-41.4305
 30
0.00000
  70
    32
  0
VERTEX
  8
COTE
  5
9A3
 10
106.215
 20
-41.0419
 30
0.00000
  70
    32
  0
VERTEX
  8
COTE
  5
9A4
 10
106.438
 20
-40.6438
 30
0.00000
  70
    32
  0
VERTEX
  8
COTE
  5
9A5
 10
106.670
 20
-40.2357
 30
0.00000
  70
    32
  0
VERTEX
  8
COTE
  5
9A6
 10
106.909
 20
-39.8174
 30
0.00000
  70
    32
  0
VERTEX
  8
COTE
  5
9A7
 10
107.157
 20
-39.3882
 30
0.00000
  70
    32
  0
VERTEX
  8
COTE
  5
9A8
 10
107.413
 20
-38.9481
 30
0.00000
  70
    32
  0
VERTEX
  8
COTE
  5
9A9
 10
107.676
 20
-38.4982
 30
0.00000
  70
    32
  0
VERTEX
  8
COTE
  5
9AA
 10
107.944
 20
-38.0402
 30
0.00000
  70
    32
  0
VERTEX
  8
COTE
  5
9AB
 10
108.215
 20
-37.5761
 30
0.00000
  70
    32
  0
VERTEX
  8
COTE
  5
9AC
 10
108.486
 20
-37.1075
 30
0.00000
  70
    32
  0
VERTEX
  8
COTE
  5
9AD
 10
108.755
 20
-36.6363
 30
0.00000
  70
    32
  0
VERTEX
  8
COTE
  5
9AE
 10
109.020
 20
-36.1643
 30
0.00000
  70
    32
  0
VERTEX
  8
COTE
  5
9AF
 10
109.278
 20
-35.6934
 30
0.00000
  70
    32
  0
VERTEX
  8
COTE
  5
9B0
 10
109.527
 20
-35.2252
 30
0.00000
  70
    32
  0
VERTEX
  8
COTE
  5
9B1
 10
109.764
 20
-34.7616
 30
0.00000
  70
    32
  0
VERTEX
  8
COTE
  5
9B2
 10
109.989
 20
-34.3045
 30
0.00000
  70
    32
  0
VERTEX
  8
COTE
  5
9B3
 10
110.197
 20
-33.8555
 30
0.00000
  70
    32
  0
VERTEX
  8
COTE
  5
9B4
 10
110.388
 20
-33.4165
 30
0.00000
  70
    32
  0
VERTEX
  8
COTE
  5
9B5
 10
110.558
 20
-32.9894
 30
0.00000
  70
    32
  0
VERTEX
  8
COTE
  5
9B6
 10
110.706
 20
-32.5758
 30
0.00000
  70
    32
  0
VERTEX
  8
COTE
  5
9B7
 10
110.829
 20
-32.1777
 30
0.00000
  70
    32
  0
VERTEX
  8
COTE
  5
9B8
 10
110.924
 20
-31.7968
 30
0.00000
  70
    32
  0
VERTEX
  8
COTE
  5
9B9
 10
110.990
 20
-31.4349
 30
0.00000
  70
    32
  0
VERTEX
  8
COTE
  5
9BA
 10
111.025
 20
-31.0938
 30
0.00000
  70
    32
  0
VERTEX
  8
COTE
  5
9BB
 10
111.025
 20
-30.7754
 30
0.00000
  70
    32
  0
VERTEX
  8
COTE
  5
9BC
 10
110.989
 20
-30.4813
 30
0.00000
  70
    32
  0
VERTEX
  8
COTE
  5
9BD
 10
110.915
 20
-30.2135
 30
0.00000
  70
    32
  0
VERTEX
  8
COTE
  5
9BE
 10
110.799
 20
-29.9737
 30
0.00000
  70
    32
  0
VERTEX
  8
COTE
  5
9BF
 10
110.640
 20
-29.7637
 30
0.00000
  70
    32
  0
VERTEX
  8
COTE
  5
9C0
 10
110.436
 20
-29.5854
 30
0.00000
  70
    32
  0
VERTEX
  8
COTE
  5
9C1
 10
110.184
 20
-29.4405
 30
0.00000
  70
    32
  0
VERTEX
  8
COTE
  5
9C2
 10
109.882
 20
-29.3308
 30
0.00000
  70
    32
  0
VERTEX
  8
COTE
  5
9C3
 10
109.530
 20
-29.2571
 30
0.00000
  70
    32
  0
VERTEX
  8
COTE
  5
9C4
 10
109.145
 20
-29.2061
 30
0.00000
  70
    32
  0
SEQEND
  8
COTE
  5
9C5
  0
INSERT
  5
2CC
  8
0
  2
*U15
 10
0.0
 20
0.0
 30
0.0
  0
DIMENSION
  5
30B
  8
COTE
  2
*D2
 10
52.3316184186926421
 20
-144.0032357352245924
 30
0.0
 11
33.1631540638704791
 21
-152.0032357352247061
 31
0.0
 70
     2
  1
60%%D
 13
24.3316184186926385
 23
-176.0032357352245924
 33
0.0
 14
52.3316184186926421
 24
-160.0032357352245924
 34
0.0
 15
24.3316184186926385
 25
-128.0032357352245924
 35
0.0
 16
34.8417511077870827
 26
-146.4989009788594956
 36
0.0
  0
DIMENSION
  5
336
  8
COTE
  2
*D3
 10
20.3316184186926385
 20
-189.8262772110601873
 30
0.0
 11
7.3316184186926421
 21
-189.8262772110601873
 31
0.0
 70
   128
 13
-5.668381581307357
 23
-152.0032357352245924
 33
0.0
 14
20.3316184186926385
 24
-152.0032357352245924
 34
0.0
  0
LINE
  5
361
  8
CONTUR
 10
20.3316184186926385
 20
-176.0032357352245924
 30
0.0
 11
24.3316184186926385
 21
-176.0032357352245924
 31
0.0
  0
DIMENSION
  5
36B
  8
COTE
  2
*D4
 10
24.3316184186926385
 20
-189.7174434658303994
 30
0.0
 11
50.3316184186926279
 21
-188.5162974903869895
 31
0.0
 70
     0
 13
76.3316184186926279
 23
-152.0032357352245924
 33
0.0
 14
24.3316184186926385
 24
-152.0032357352245924
 34
0.0
  0
DIMENSION
  5
39E
  8
COTE
  2
*D5
 10
52.3316184186926421
 20
-178.1682172754107967
 30
0.0
 11
64.3316184186926421
 21
-176.9841245059701009
 31
0.0
 70
     0
 13
76.3316184186926279
 23
-152.0032357352245924
 33
0.0
 14
52.3316184186926421
 24
-152.0032357352245924
 34
0.0
  0
DIMENSION
  5
3D1
  8
COTE
  2
*D6
 10
52.3316184186926421
 20
-170.5756708689999925
 30
0.0
 11
42.3398858129627627
 21
-169.3745248935566963
 31
0.0
 70
     0
 13
59.9316184186926293
 23
-152.0032357352245924
 33
0.0
 14
52.3316184186926421
 24
-152.0032357352245924
 34
0.0
1001
ACAD
1000
DSTYLE
1002
{
1070
   271
1070
     1
1002
}
  0
DIMENSION
  5
3F5
  8
COTE
  2
*D7
 10
90.8786352892076366
 20
-160.0032357352245924
 30
0.0
 11
89.677489313764184
 21
-152.0032357352245924
 31
0.0
 70
     0
  1
M<>
 13
74.3316184186926279
 23
-144.0032357352245924
 33
0.0
 14
74.3316184186926421
 24
-160.0032357352245924
 34
0.0
 50
90.0
  0
DIMENSION
  5
437
  8
COTE
  2
*D8
 10
115.0853685896522052
 20
-191.8870065768439872
 30
0.0
 11
126.0853685896522052
 21
-190.7029138074032915
 31
0.0
 70
     0
 13
137.0853685896522052
 23
-152.0032357352245924
 33
0.0
 14
115.0853685896522052
 24
-152.0032357352245924
 34
0.0
  0
DIMENSION
  5
44F
  8
COTE
  2
*D9
 10
159.0853685896522052
 20
-196.7141947296775015
 30
0.0
 11
137.0853685896522052
 21
-195.5341947296774947
 31
0.0
 70
     0
 13
115.0853685896522052
 23
-152.0032357352245924
 33
0.0
 14
159.0853685896522052
 24
-152.0032357352245924
 34
0.0
  0
DIMENSION
  5
467
  8
COTE
  2
*D10
 10
116.7653662255106042
 20
-139.5840873301640102
 30
0.0
 11
148.5976319329164141
 21
-159.0104248103131113
 31
0.0
 70
   131
 15
157.7381857962764968
 25
-164.5886480425915011
 35
0.0
 40
0.0
1001
ACAD_DSTYLE_DIMRADIAL_EXTENSION
1070
   387
1070
     1
1070
   388
1040
3.5527305159121392
1070
   390
1040
5.8720474448572402
  0
INSERT
  5
494
  8
0
  2
*U25
 10
0.0
 20
0.0
 30
0.0
1001
ACAD
1000
DSTYLE
1002
{
1070
   341
1005
4D4
1002
}
  0
LINE
  5
4D9
  8
PUNCTAT
 10
93.1331942350511781
 20
-29.3004518079031904
 30
0.0
 11
118.3219684747731009
 21
-4.1116775681812783
 31
0.0
  0
DIMENSION
  5
4DA
  8
COTE
  2
*D12
 10
118.3219684747731009
 20
-4.1116775681812783
 30
0.0
 11
108.8361201370754969
 21
-22.7960869303448703
 31
0.0
 70
     2
 13
93.1331942350511781
 23
-29.3004518079030696
 33
0.0
 14
109.7616351606094014
 24
-29.3004518079030696
 34
0.0
 15
93.1331942350511781
 25
-29.3004518079031904
 35
0.0
 16
108.3945048023042972
 26
-25.2111959659670717
 36
0.0
  0
LINE
  5
4F2
  8
AXE
 10
74.3316184186926563
 20
-144.0032357352245924
 30
0.0
 11
68.4986578126478776
 21
-138.1702751291797995
 31
0.0
  0
INSERT
  5
4FA
  8
0
  2
*U27
 10
0.0
 20
0.0
 30
0.0
  0
INSERT
  5
4FB
  8
0
  2
*U28
 10
0.0
 20
0.0
 30
0.0
  0
LINE
  5
4FC
  8
PUNCTAT
 10
-3.668381581307357
 20
-146.0032357352245924
 30
0.0
 11
4.3089767709117828
 21
-138.0258773830055077
 31
0.0
  0
LINE
  5
501
  8
COTE
 10
-3.668381581307357
 20
-158.0032357352245924
 30
0.0
 11
2.8400289476608829
 21
-164.511646264192791
 31
0.0
  0
INSERT
  5
50E
  8
0
  2
*U29
 10
0.0
 20
0.0
 30
0.0
  0
INSERT
  5
511
  8
0
  2
*U30
 10
0.0
 20
0.0
 30
0.0
  0
INSERT
  5
514
  8
0
  2
*U31
 10
0.0
 20
0.0
 30
0.0
  0
DIMENSION
  5
517
  8
COTE
  2
*D13
 10
11.4807807848801104
 20
-158.0032357352247061
 30
0.0
 11
11.4807807848800607
 21
-135.3130038116229912
 31
0.0
 70
   128
  1
%%C12
 13
5.4807807848801016
 23
-146.0032357352245924
 33
0.0
 14
5.4807807848800758
 24
-158.0032357352245924
 34
0.0
 50
90.0000000000000568
  0
INSERT
  5
565
  8
0
  2
*U32
 10
0.0
 20
0.0
 30
0.0
  0
INSERT
  5
566
  8
0
  2
*U33
 10
0.0
 20
0.0
 30
0.0
  0
INSERT
  5
568
  8
0
  2
*U34
 10
0.0
 20
0.0
 30
0.0
  0
INSERT
  5
569
  8
0
  2
*U35
 10
0.0
 20
0.0
 30
0.0
  0
INSERT
  5
56A
  8
0
  2
*U36
 10
0.0
 20
0.0
 30
0.0
  0
INSERT
  5
56B
  8
0
  2
*U37
 10
0.0
 20
0.0
 30
0.0
  0
INSERT
  5
56E
  8
0
  2
*U38
 10
0.0
 20
0.0
 30
0.0
  0
INSERT
  5
583
  8
0
  2
*U40
 10
0.0
 20
0.0
 30
0.0
  0
INSERT
  5
584
  8
0
  2
*U41
 10
0.0
 20
0.0
 30
0.0
  0
INSERT
  5
585
  8
0
  2
*U42
 10
0.0
 20
0.0
 30
0.0
  0
INSERT
  5
586
  8
0
  2
*U43
 10
0.0
 20
0.0
 30
0.0
  0
INSERT
  5
588
  8
0
  2
*U44
 10
0.0
 20
0.0
 30
0.0
  0
LINE
  5
58A
  8
COTE
 10
55.133194235051171
 20
-39.3004518079030518
 30
0.0
 11
41.4807807848800891
 21
-39.3004518079030518
 31
0.0
  0
INSERT
  5
58C
  8
0
  2
*U45
 10
0.0
 20
0.0
 30
0.0
  0
INSERT
  5
58F
  8
0
  2
*U46
 10
0.0
 20
0.0
 30
0.0
  0
INSERT
  5
597
  8
0
  2
*U47
 10
0.0
 20
0.0
 30
0.0
  0
INSERT
  5
598
  8
0
  2
*U48
 10
0.0
 20
0.0
 30
0.0
  0
LINE
  5
5BB
  8
AXE
 10
68.1316184186926392
 20
-123.5180996035221028
 30
0.0
 11
68.1316184186926392
 21
-75.1550710366032035
 31
0.0
  0
ATTDEF
  5
5BF
  8
0
 10
163.0873911173063959
 20
-158.5638869925579968
 30
0.0
 40
1.8
  1

 50
90.0
  7
ANNOTATIVE
 11
161.287391117306413
 21
-158.5638869925579968
 31
0.0
  3

  2
1.6
 70
     0
 74
     3
1001
ACADANNOTATIVE
1000
AnnotativeData
1002
{
1070
     1
1070
     1
1002
}
1001
AcDbAttr
1070
     0
1070
     1
  0
ATTDEF
  5
644
  8
0
 10
113.0378817491477008
 20
-133.1540279119647039
 30
0.0
 40
1.8
  1

 50
90.0
  7
ANNOTATIVE
 11
111.2378817491477037
 21
-133.1540279119647039
 31
0.0
  3

  2
1.6
 70
     0
 74
     3
1001
ACADANNOTATIVE
1000
AnnotativeData
1002
{
1070
     1
1070
     1
1002
}
1001
AcDbAttr
1070
     0
1070
     1
  0
LINE
  5
649
  8
COTE
 10
115.0853685896522052
 20
-142.4115726885991933
 30
0.0
 11
115.0853685896522052
 21
-123.7139302693961014
 31
0.0
  0
ATTDEF
  5
65B
  8
0
  6
DASHED2
 10
20.7359386292871513
 20
-123.2623518668136029
 30
0.0
 40
1.8
  1

  7
ANNOTATIVE
 11
20.7359386292871513
 21
-121.4623518668136057
 31
0.0
  3

  2
1.6
 70
     0
 74
     3
1001
ACADANNOTATIVE
1000
AnnotativeData
1002
{
1070
     1
1070
     1
1002
}
1001
AcDbAttr
1070
     0
1070
     1
  0
LINE
  5
660
  8
0
 10
22.3790151085490798
 20
-128.0032357352245924
 30
0.0
 11
26.9613182440871313
 21
-121.9879755612131049
 31
0.0
  0
LINE
  5
661
  8
0
 10
22.3790151085490798
 20
-128.0032357352245924
 30
0.0
 11
19.548769589586751
 21
-124.8157881688889006
 31
0.0
  0
LINE
  5
662
  8
0
 10
159.0853685896522052
 20
-155.6524202166885118
 30
0.0
 11
161.8697041604737024
 21
-161.0387309205738973
 31
0.0
  0
LINE
  5
663
  8
0
 10
161.8697041604737024
 20
-161.0387309205738973
 30
0.0
 11
159.0853685896522052
 21
-155.6524202166885118
 31
0.0
  0
LINE
  5
665
  8
0
 10
159.0853685896522052
 20
-155.6524202166885118
 30
0.0
 11
161.8697041604737024
 21
-153.7672107615937023
 31
0.0
  0
LINE
  5
666
  8
0
 10
114.977076057483302
 20
-130.8505243084806864
 30
0.0
 11
109.6361666743050023
 21
-126.9541647935152042
 31
0.0
  0
LINE
  5
667
  8
0
 10
114.977076057483302
 20
-130.8505243084806864
 30
0.0
 11
112.5185617971123975
 21
-133.1375179025916111
 31
0.0
  0
VIEWPORT
  5
688
 67
     1
  8
0
 10
3.5527923720106549
 20
2.5255754098999921
 30
0.0
 40
9.4571368568405152
 41
3.6598673310688521
 68
     1
 69
     1
1001
ACAD
1000
MVIEW
1002
{
1070
    16
1010
0.0
1020
0.0
1030
0.0
1010
0.0
1020
0.0
1030
1.0
1040
0.0
1040
3.6598673310688521
1040
3.5527923720106549
1040
2.5255754098999921
1040
50.0
1040
0.0
1040
0.0
1070
     0
1070
  1000
1070
     1
1070
     1
1070
     0
1070
     0
1070
     0
1070
     0
1040
0.0
1040
0.0
1040
0.0
1040
0.5
1040
0.5
1040
0.5
1040
0.5
1070
     0
1002
{
1002
}
1002
}
  0
VIEWPORT
  5
68D
 67
     1
  8
0
 10
5.2499997615814209
 20
3.9999997615814209
 30
0.0
 40
8.3999996185302752
 41
6.3999996185302743
 68
     2
 69
     2
1001
ACAD
1000
MVIEW
1002
{
1070
    16
1010
0.0
1020
0.0
1030
0.0
1010
0.0
1020
0.0
1030
1.0
1040
0.0
1040
246.1242282097217071
1040
77.9807807848800962
1040
-109.5911391365219032
1040
50.0
1040
0.0
1040
0.0
1070
     0
1070
  1000
1070
     1
1070
     3
1070
     0
1070
     0
1070
     0
1070
     0
1040
0.0
1040
0.0
1040
0.0
1040
0.5
1040
0.5
1040
0.5
1040
0.5
1070
     0
1002
{
1002
}
1002
}
  0
ENDSEC
  0
EOF
